<svg id="images" xmlns="http://www.w3.org/2000/svg" viewBox="0 0 122.04 122.27"><defs><style>.cls-1{fill:#ffec64;}.cls-2{fill:#fff;}</style></defs><title>alert_</title><polygon class="cls-1" points="61.026 5.679 26.438 63.056 61.027 83.568 95.602 63.056 61.026 5.679"/><polygon class="cls-1" points="26.438 67.839 61.026 88.213 95.602 67.839 61.026 116.592 26.438 67.839"/><polygon class="cls-2" points="16.793 5.118 26.243 14.223 39.101 11.599 33.363 23.401 39.831 34.819 26.834 33.008 17.974 42.688 15.679 29.768 3.735 24.332 15.315 18.158 16.793 5.118"/><polygon class="cls-2" points="105.774 5.118 96.323 14.223 83.465 11.599 89.204 23.401 82.735 34.819 95.732 33.008 104.593 42.688 106.887 29.768 118.831 24.332 107.252 18.158 105.774 5.118"/></svg>