<svg width="114" height="65" viewBox="0 0 114 65" fill="none" xmlns="http://www.w3.org/2000/svg">
<path fill-rule="evenodd" clip-rule="evenodd" d="M96.6398 54.3086C106.756 48.5403 112.654 40.7787 112.654 32.5C112.654 24.2213 106.756 16.4597 96.6398 10.6914C86.5623 4.94549 72.5503 1.34863 56.9998 1.34863C41.4494 1.34863 27.4376 4.94549 17.3599 10.6914C7.24322 16.4597 1.34536 24.2213 1.34536 32.5C1.34536 40.7787 7.24322 48.5403 17.3599 54.3086C27.4376 60.0545 41.4494 63.6514 56.9998 63.6514C72.5503 63.6514 86.5623 60.0545 96.6398 54.3086ZM56.9998 65C88.48 65 114 50.4493 114 32.5C114 14.5507 88.48 0 56.9998 0C25.5197 0 0 14.5507 0 32.5C0 50.4493 25.5197 65 56.9998 65Z" fill="black"/>
<path fill-rule="evenodd" clip-rule="evenodd" d="M55.5749 63.6514C74.6293 63.6514 89.8545 49.5876 89.8545 32.5C89.8545 15.4124 74.6293 1.34863 55.5749 1.34863C36.5207 1.34863 21.2954 15.4124 21.2954 32.5C21.2954 49.5876 36.5207 63.6514 55.5749 63.6514ZM55.5749 65C75.2501 65 91.1998 50.4493 91.1998 32.5C91.1998 14.5507 75.2501 0 55.5749 0C35.8999 0 19.9499 14.5507 19.9499 32.5C19.9499 50.4493 35.8999 65 55.5749 65Z" fill="black"/>
<path fill-rule="evenodd" clip-rule="evenodd" d="M64.4195 54.9382C66.907 49.265 68.4796 41.3328 68.4796 32.5C68.4796 23.6672 66.907 15.7351 64.4195 10.0618C63.1749 7.22306 61.7277 5.01038 60.1888 3.52601C58.6566 2.04786 57.0995 1.34863 55.5749 1.34863C54.0504 1.34863 52.4934 2.04786 50.961 3.52601C49.4221 5.01038 47.9751 7.22306 46.7303 10.0618C44.2427 15.7351 42.6704 23.6672 42.6704 32.5C42.6704 41.3328 44.2427 49.265 46.7303 54.9382C47.9751 57.7769 49.4221 59.9896 50.961 61.474C52.4934 62.9521 54.0504 63.6514 55.5749 63.6514C57.0995 63.6514 58.6566 62.9521 60.1888 61.474C61.7277 59.9896 63.1749 57.7769 64.4195 54.9382ZM55.5749 65C63.445 65 69.8248 50.4493 69.8248 32.5C69.8248 14.5507 63.445 0 55.5749 0C47.705 0 41.3249 14.5507 41.3249 32.5C41.3249 50.4493 47.705 65 55.5749 65Z" fill="black"/>
<path d="M12.6469 22.7902C12.6469 22.5781 12.616 22.4146 12.5543 22.2996C12.5015 22.1849 12.4089 22.1008 12.2767 22.0479C12.1445 21.9949 11.9682 21.964 11.7479 21.9552C11.5364 21.9464 11.272 21.942 10.9547 21.942V42.2991C11.272 42.2991 11.5364 42.2947 11.7479 42.2859C11.9682 42.2768 12.1445 42.2459 12.2767 42.193C12.4089 42.14 12.5015 42.0559 12.5543 41.9412C12.616 41.8262 12.6469 41.6629 12.6469 41.4509V22.7902ZM14.3391 41.4509C14.3391 41.9809 14.2421 42.3918 14.0482 42.6832C13.8543 42.9662 13.5987 43.1738 13.2814 43.3062C12.9642 43.4388 12.6028 43.5182 12.1974 43.5447C11.792 43.5626 11.3777 43.5714 10.9547 43.5714H9.26251V20.6696H10.9547C11.3777 20.6696 11.792 20.6829 12.1974 20.7094C12.6028 20.727 12.9642 20.802 13.2814 20.9346C13.5987 21.067 13.8543 21.2791 14.0482 21.5708C14.2421 21.8535 14.3391 22.2599 14.3391 22.7902V41.4509Z" fill="black"/>
<path d="M32.3296 21.942H34.4448V20.6696H30.6374V43.5714H32.3296V21.942Z" fill="black"/>
<path d="M56.1092 22.7902C56.1092 22.5781 56.0784 22.4146 56.0165 22.2996C55.9637 22.1849 55.8713 22.1008 55.739 22.0479C55.6067 21.9949 55.4307 21.964 55.2103 21.9552C54.9988 21.9464 54.7342 21.942 54.4171 21.942V42.2991C54.7342 42.2991 54.9988 42.2947 55.2103 42.2859C55.4307 42.2768 55.6067 42.2459 55.739 42.193C55.8713 42.14 55.9637 42.0559 56.0165 41.9412C56.0784 41.8262 56.1092 41.6629 56.1092 41.4509V22.7902ZM57.8014 41.4509C57.8014 41.9809 57.7043 42.3918 57.5104 42.6832C57.3165 42.9662 57.061 43.1738 56.7438 43.3062C56.4264 43.4388 56.0652 43.5182 55.6598 43.5447C55.2543 43.5626 54.8401 43.5714 54.4171 43.5714H52.7249V20.6696H54.4171C54.8401 20.6696 55.2543 20.6829 55.6598 20.7094C56.0652 20.727 56.4264 20.802 56.7438 20.9346C57.061 21.067 57.3165 21.2791 57.5104 21.5708C57.7043 21.8535 57.8014 22.2599 57.8014 22.7902V41.4509Z" fill="black"/>
<path d="M80.3341 43.5714H82.0263L80.7572 20.6696H78.2189L76.9498 43.5714H78.642L79.065 31.6964L79.4881 21.5179L79.9111 31.6964L80.3341 43.5714Z" fill="black"/>
<path d="M104.114 41.4509C104.114 41.5568 104.101 41.7512 104.074 42.0341C104.048 42.3079 103.955 42.5906 103.796 42.8823C103.638 43.1738 103.387 43.43 103.043 43.6509C102.699 43.8806 102.21 43.9955 101.576 43.9955C100.941 43.9955 100.452 43.8806 100.108 43.6509C99.7642 43.43 99.5131 43.1738 99.3544 42.8823C99.1957 42.5906 99.1033 42.3079 99.0768 42.0341C99.0504 41.7512 99.0372 41.5568 99.0372 41.4509V22.7902C99.0372 22.7196 99.0416 22.6134 99.0504 22.472C99.0592 22.3308 99.0857 22.1761 99.1297 22.0081C99.1737 21.8314 99.2488 21.6549 99.3544 21.4781C99.4603 21.2926 99.6055 21.1246 99.7906 20.9744C99.9758 20.8243 100.214 20.7049 100.505 20.6167C100.795 20.5194 101.152 20.4708 101.576 20.4708C101.999 20.4708 102.355 20.5194 102.646 20.6167C102.937 20.7049 103.175 20.8243 103.36 20.9744C103.545 21.1246 103.691 21.2926 103.796 21.4781C103.902 21.6549 103.977 21.8314 104.021 22.0081C104.065 22.1761 104.092 22.3308 104.101 22.472C104.109 22.6134 104.114 22.7196 104.114 22.7902V41.4509ZM100.729 41.4509C100.729 41.5568 100.734 41.685 100.743 41.8353C100.751 41.9765 100.782 42.1135 100.835 42.2462C100.888 42.3785 100.972 42.4935 101.086 42.5906C101.201 42.6791 101.364 42.7232 101.576 42.7232C101.787 42.7232 101.95 42.6791 102.065 42.5906C102.179 42.4935 102.263 42.3785 102.316 42.2462C102.369 42.1135 102.4 41.9765 102.408 41.8353C102.417 41.685 102.422 41.5568 102.422 41.4509V22.7902C102.422 22.684 102.417 22.5693 102.408 22.4455C102.4 22.322 102.369 22.2114 102.316 22.1143C102.263 22.0082 102.179 21.9199 102.065 21.849C101.95 21.7784 101.787 21.7431 101.576 21.7431C101.364 21.7431 101.201 21.7784 101.086 21.849C100.972 21.9199 100.888 22.0082 100.835 22.1143C100.782 22.2114 100.751 22.322 100.743 22.4455C100.734 22.5693 100.729 22.684 100.729 22.7902V41.4509Z" fill="black"/>
<path fill-rule="evenodd" clip-rule="evenodd" d="M53.4374 32.8571H12.825V30.8804H53.4374V32.8571Z" fill="black"/>
<path fill-rule="evenodd" clip-rule="evenodd" d="M99.0372 32.8571H57.7123V30.8804H99.0372V32.8571Z" fill="black"/>
<path fill-rule="evenodd" clip-rule="evenodd" d="M114 32.8571H104.025V30.8804H114V32.8571Z" fill="black"/>
<path fill-rule="evenodd" clip-rule="evenodd" d="M10.6873 32.8571H0.712297V30.8804H10.6873V32.8571Z" fill="black"/>
</svg>
