<svg id="images" xmlns="http://www.w3.org/2000/svg" viewBox="0 0 128 128"><defs><style>.cls-1{fill:#fff;}.cls-2{fill:#407f47;}.cls-3,.cls-4,.cls-5{fill:none;stroke-linejoin:round;}.cls-3,.cls-4{stroke:#407f47;}.cls-3{stroke-width:0.25px;}.cls-4,.cls-5{stroke-width:0.75px;}.cls-5{stroke:#fff;}</style></defs><title>alert_</title><path class="cls-1" d="M36.215,101.627c-7.364,5.478-14.429,12.1-14.456,20.341-.027-8.245-7.093-14.863-14.456-20.341,7.133-5.3,13.981-11.69,14.429-19.569.013-.258.027-.515.027-.773,0,.258.013.515.027.773C22.233,89.937,29.082,96.324,36.215,101.627Z"/><path class="cls-1" d="M30.011,89.9A62.364,62.364,0,0,1,33.9,75.2a92.167,92.167,0,0,1,6.73-13.75A105.59,105.59,0,0,1,60.11,37.777,117.413,117.413,0,0,1,113.9,10.257,278.3,278.3,0,0,0,87.647,24.542a165.181,165.181,0,0,0-23.5,17.672A143.813,143.813,0,0,0,44.563,64.035a137.483,137.483,0,0,0-8.01,12.421A103.208,103.208,0,0,0,30.011,89.9Z"/><path class="cls-1" d="M108.971,64c-2.493,1.855-4.885,4.1-4.9,6.888-.009-2.792-2.4-5.033-4.895-6.888,2.416-1.8,4.735-3.958,4.886-6.626.005-.087.009-.175.009-.262,0,.087.005.175.01.262C104.237,60.042,106.556,62.205,108.971,64Z"/><path class="cls-1" d="M46.745,10.79c-1.665,1.24-3.263,2.737-3.27,4.6-.006-1.865-1.6-3.362-3.27-4.6,1.614-1.2,3.163-2.644,3.264-4.426,0-.058.006-.117.006-.175,0,.058,0,.117.007.175C43.583,8.146,45.132,9.591,46.745,10.79Z"/><circle class="cls-2" cx="66.975" cy="63.31" r="0.879"/><circle class="cls-2" cx="85.887" cy="102.627" r="0.879"/><circle class="cls-2" cx="35.472" cy="45.918" r="0.879"/><circle class="cls-2" cx="8.98" cy="63.847" r="0.537"/><circle class="cls-2" cx="99.181" cy="73.662" r="0.879"/><circle class="cls-1" cx="82.373" cy="86.813" r="1.168"/><circle class="cls-1" cx="97.355" cy="22.495" r="1.168"/><circle class="cls-1" cx="108.971" cy="87.981" r="1.168"/><circle class="cls-1" cx="37.613" cy="118.787" r="2.14"/><circle class="cls-1" cx="117.496" cy="36.786" r="1.07"/><circle class="cls-1" cx="11.099" cy="41.363" r="1.447"/><circle class="cls-1" cx="114.161" cy="106.279" r="2.265"/><circle class="cls-1" cx="93.903" cy="8.454" r="1.602"/><circle class="cls-1" cx="45.244" cy="84.464" r="0.723"/><circle class="cls-2" cx="89.658" cy="42.81" r="0.879"/><circle class="cls-2" cx="122.243" cy="56.866" r="0.879"/><circle class="cls-2" cx="8.98" cy="82.164" r="0.879"/><circle class="cls-1" cx="42.597" cy="31.277" r="0.879"/><circle class="cls-1" cx="69.597" cy="55.277" r="0.879"/><circle class="cls-1" cx="50.809" cy="114.086" r="0.879"/><path class="cls-3" d="M57.517,82.164a3.245,3.245,0,0,0-1.635,2.3,3.245,3.245,0,0,0-1.635-2.3,3.363,3.363,0,0,0,1.632-2.213c0-.03,0-.059,0-.088,0,.029,0,.058,0,.088A3.363,3.363,0,0,0,57.517,82.164Z"/><path class="cls-4" d="M98.523,115.573c-2.034,1.514-3.986,3.342-3.993,5.619-.008-2.277-1.959-4.1-3.993-5.619,1.97-1.464,3.862-3.228,3.985-5.4,0-.071.008-.142.008-.213,0,.071,0,.142.007.213C94.661,112.345,96.553,114.109,98.523,115.573Z"/><path class="cls-5" d="M23.866,50.078c-1.824,1.357-3.574,3-3.581,5.038-.006-2.042-1.757-3.681-3.581-5.038,1.767-1.314,3.464-2.9,3.575-4.848,0-.063.006-.127.006-.191,0,.064,0,.128.007.191C20.4,47.182,22.1,48.764,23.866,50.078Z"/><circle class="cls-1" cx="27.04" cy="76.298" r="0.723"/><circle class="cls-1" cx="66.097" cy="10.257" r="0.723"/><circle class="cls-1" cx="5.73" cy="68.116" r="0.808"/><circle class="cls-1" cx="76.644" cy="79.253" r="1.607"/><circle class="cls-1" cx="59.837" cy="28.056" r="1.607"/><path class="cls-2" d="M81.205,42.046c-1.071.8-2.1,1.759-2.1,2.958,0-1.2-1.032-2.161-2.1-2.958,1.038-.771,2.034-1.7,2.1-2.846,0-.037,0-.075,0-.112,0,.037,0,.075,0,.112C79.172,40.346,80.168,41.275,81.205,42.046Z"/><circle class="cls-1" cx="64" cy="47.055" r="0.723"/><circle class="cls-2" cx="62.624" cy="101.232" r="0.879"/></svg>