<svg id="images" xmlns="http://www.w3.org/2000/svg" viewBox="0 0 128 128"><defs><style>.cls-1{fill:#9a2883;}.cls-2{fill:#d23191;}.cls-3{fill:#b2fffc;}</style></defs><title>alert_</title><path class="cls-1" d="M67.4,128l.63.12a60.614,60.614,0,0,0,19.01,0l.78-.12Zm0,0,.63.12a60.614,60.614,0,0,0,19.01,0l.78-.12ZM-.124-.12V128.12h10.59l.21-.12H67.4c-.71-.14-1.39-.31-2.02-.49-9.55-2.78-18.57-9.47-28.71-14.51l8-4.63,9.23-5.32,7.7-4.45,29.74-17.17,10.45-6.03,15.63-9.03,10.38-5.99a20.583,20.583,0,0,1-1.86,6.56c-1.61,3.37-17.79,26.15-14.24,39.02,3.58,12.98-9.83,19.78-23.88,22.04H128V89.4c.04-.08.08-.17.12-.25V-.12ZM67.4,128l.63.12a60.614,60.614,0,0,0,19.01,0l.78-.12Zm0,0,.63.12a60.614,60.614,0,0,0,19.01,0l.78-.12Zm0,0,.63.12a60.614,60.614,0,0,0,19.01,0l.78-.12Z"/><path class="cls-2" d="M67.4,128l.63.12a60.614,60.614,0,0,0,19.01,0l.78-.12Zm0,0,.63.12a60.614,60.614,0,0,0,19.01,0l.78-.12ZM128,3.72c-.41-.13-.81-.24-1.21-.33C114.9.75,98.956,6.75,84.666,0c-.08-.04-.17-.08-.25-.12H-.124V10.84c.04.08.08.17.12.26,2.71,6.09,2.2,13.09,0,20.1l-.12.36v96.56h10.59l.21-.12H67.4c-.71-.14-1.39-.31-2.02-.49-9.55-2.78-18.57-9.47-28.71-14.51l8-4.63,9.23-5.32,7.7-4.45,29.74-17.17,10.45-6.03,15.63-9.03,10.38-5.99a20.583,20.583,0,0,1-1.86,6.56c-1.61,3.37-17.79,26.15-14.24,39.02,3.58,12.98-9.83,19.78-23.88,22.04H128V89.4c.04-.08.08-.17.12-.25V3.76C128.076,3.75,128.036,3.73,128,3.72ZM67.4,128l.63.12a60.614,60.614,0,0,0,19.01,0l.78-.12Z"/><path class="cls-2" d="M128.116,89.15v38.97h-6.68a.746.746,0,0,0,.07-.12H128V89.4C128.036,89.32,128.076,89.23,128.116,89.15Z"/><path class="cls-3" d="M67.4,128l.63.12a60.614,60.614,0,0,0,19.01,0l.78-.12ZM128,21.08c-3.83-4.11-7.91-6.95-11.6-7.77C103.026,10.34,83.516,20.45,69.5,0c-.03-.04-.05-.08-.08-.12H11.466l-.09.12c-3.83,5.63-4.95,12.08-1.42,18.47C16.226,29.81,7.736,45.5,0,56.48c-.04.06-.08.12-.12.17v57.51l.12.06a33.977,33.977,0,0,0,5.7,2.16,43.247,43.247,0,0,0,4.53,1.01,62.162,62.162,0,0,1,12.61,3.59A114.546,114.546,0,0,1,37.266,128H67.4c-.71-.14-1.39-.31-2.02-.49-9.55-2.78-18.57-9.47-28.71-14.51l8-4.63,9.23-5.32,7.7-4.45,29.74-17.17,10.45-6.03,15.63-9.03,10.38-5.99a20.583,20.583,0,0,1-1.86,6.56c-1.61,3.37-17.79,26.15-14.24,39.02,3.58,12.98-9.83,19.78-23.88,22.04h33.69a16.069,16.069,0,0,0,1.1-12.29c-2.03-7.35,1.18-17.32,5.39-26.31.04-.08.08-.17.12-.25V21.21C128.076,21.17,128.036,21.12,128,21.08Z"/><path class="cls-1" d="M67.4,128l.63.12a60.614,60.614,0,0,0,19.01,0l.78-.12Zm58.9-81.25c-3.67-11.8-12.57-22.56-19.65-24.14-11.91-2.64-29.81,7.47-41.27-16.23A14.2,14.2,0,0,0,59.326,0c-.08-.04-.16-.09-.24-.12H37.9c-.12.04-.23.08-.35.12-12.8,4.66-23.6,15.83-17.53,26.81,7.45,13.48-10.7,34.51-15.21,40.13C2.5,69.83,0,76.74,0,84.07c0,9.91,4.55,20.61,20.24,23.25.29.05.58.1.87.16A59.491,59.491,0,0,1,36.666,113l8-4.63,9.23-5.32,7.7-4.45,29.74-17.17,10.45-6.03,15.63-9.03,10.38-5.99a24.226,24.226,0,0,0,.2-3.2A35.547,35.547,0,0,0,126.3,46.75Z"/><path class="cls-2" d="M118.326,51.35c-2.63-11.04-11.01-21.65-17.57-23.11-10.26-2.28-25.69,6.43-35.57-14-8.69-17.96-48.77.11-39.1,17.61,6.42,11.62-9.22,29.74-13.1,34.59-4.69,5.86-10.23,30.84,13.3,34.8a38.382,38.382,0,0,1,4.05.91,65.96,65.96,0,0,1,14.33,6.22l9.23-5.32,7.7-4.45,29.74-17.17,10.45-6.03,15.63-9.03C119.536,61.88,119.576,56.57,118.326,51.35Z"/><path class="cls-3" d="M108.636,56.95c-.99-10.04-8.83-20.76-14.82-22.09-8.32-1.85-20.84,5.22-28.86-11.36-7.05-14.57-39.56.09-31.71,14.29,5.21,9.43-7.48,24.13-10.63,28.06-3.81,4.75-8.3,25.02,10.79,28.23a36.063,36.063,0,0,1,7.3,2.09,103.35,103.35,0,0,1,13.19,6.88l7.7-4.45,29.74-17.17,10.45-6.03c2.44-4.68,5.01-8.49,5.52-9.55A16.593,16.593,0,0,0,108.636,56.95Z"/><path class="cls-1" d="M100.216,61.81a11.849,11.849,0,0,1-1.03,3.56c-.7,1.45-6.12,9.21-7.85,16.06L61.6,98.6c-4.25-1.85-8.42-4.71-12.99-7a34.077,34.077,0,0,0-9.47-3.29c-15.51-2.61-11.85-19.07-8.76-22.94,2.56-3.19,12.87-15.13,8.64-22.79-6.38-11.54,20.04-23.45,25.76-11.61,6.52,13.46,16.69,7.72,23.45,9.22C93.826,41.44,101.436,52.82,100.216,61.81Z"/><path class="cls-2" d="M89.086,64.781c-.653,1.366-7.2,10.59-5.768,15.8C85.635,88.99,70.36,91,64.557,89.311c-5.821-1.7-11.164-6.975-18.282-8.174-11.058-1.864-8.453-13.6-6.248-16.356C41.85,62.5,49.2,53.988,46.184,48.527,41.639,40.3,60.472,31.808,64.557,40.251c4.644,9.6,11.893,5.507,16.714,6.576C85.823,47.837,92.227,58.216,89.086,64.781Z"/><path class="cls-3" d="M82.811,64.413c-.49,1.024-5.4,7.941-4.325,11.85,1.737,6.3-9.717,7.812-14.069,6.544s-8.371-5.23-13.709-6.13c-8.291-1.4-6.338-10.2-4.685-12.264,1.368-1.707,6.88-8.093,4.618-12.188-3.409-6.17,10.714-12.537,13.776-6.206,3.483,7.2,8.919,4.129,12.534,4.931C80.365,51.708,85.167,59.49,82.811,64.413Z"/><path class="cls-1" d="M78.365,64.152c-.374.782-4.126,6.065-3.3,9.05,1.327,4.813-7.42,5.965-10.743,5s-6.393-3.994-10.469-4.681c-6.332-1.067-4.84-7.789-3.578-9.366,1.044-1.3,5.254-6.18,3.526-9.307-2.6-4.712,8.182-9.574,10.521-4.739,2.659,5.5,6.81,3.153,9.571,3.765C76.5,54.45,80.164,60.393,78.365,64.152Z"/><path class="cls-2" d="M73.906,63.891c-.258.539-2.845,4.182-2.278,6.24.915,3.319-5.117,4.114-7.408,3.446S59.812,70.823,57,70.349c-4.367-.735-3.338-5.371-2.467-6.458.72-.9,3.622-4.262,2.431-6.418-1.8-3.249,5.642-6.6,7.255-3.268,1.834,3.791,4.7,2.174,6.6,2.6C72.617,57.2,75.146,61.3,73.906,63.891Z"/><path class="cls-3" d="M70.149,63.671c-.16.334-1.766,2.6-1.413,3.873.567,2.061-3.177,2.554-4.6,2.14s-2.736-1.71-4.481-2c-2.711-.457-2.072-3.335-1.532-4.009.447-.559,2.249-2.646,1.51-3.985-1.114-2.017,3.5-4.1,4.5-2.029,1.139,2.354,2.916,1.35,4.1,1.613C69.35,59.517,70.919,62.061,70.149,63.671Z"/><path class="cls-1" d="M68.106,63.551c-.107.223-1.179,1.733-.944,2.586.379,1.376-2.121,1.7-3.071,1.428s-1.827-1.141-2.992-1.337c-1.81-.3-1.383-2.227-1.023-2.677.3-.373,1.5-1.767,1.008-2.661-.744-1.346,2.339-2.736,3.007-1.354.76,1.571,1.947.9,2.736,1.076A2.531,2.531,0,0,1,68.106,63.551Z"/><path class="cls-2" d="M66.48,63.455c-.064.135-.712,1.048-.57,1.563.229.831-1.281,1.03-1.855.863s-1.1-.69-1.808-.808c-1.093-.185-.835-1.345-.617-1.618.18-.225.907-1.067.608-1.607-.449-.813,1.413-1.653,1.817-.818.459.949,1.176.544,1.653.65A1.528,1.528,0,0,1,66.48,63.455Z"/><path class="cls-3" d="M65.665,63.408c-.044.09-.478.7-.383,1.048.154.558-.86.692-1.245.579s-.741-.462-1.213-.542c-.734-.124-.561-.9-.415-1.085.121-.152.609-.717.409-1.079-.3-.546.948-1.11,1.219-.549.308.637.789.365,1.109.436A1.027,1.027,0,0,1,65.665,63.408Z"/><path class="cls-1" d="M65.025,63.37c-.027.056-.3.433-.236.645.095.344-.529.426-.766.357s-.456-.285-.747-.334c-.452-.076-.345-.556-.255-.668.074-.093.375-.441.251-.664-.185-.336.584-.683.751-.338.189.392.486.225.682.269A.632.632,0,0,1,65.025,63.37Z"/><path class="cls-2" d="M64.573,63.344c-.015.031-.165.241-.132.36.053.192-.3.238-.428.2s-.255-.16-.418-.187c-.252-.043-.193-.311-.142-.373s.209-.247.14-.372c-.1-.188.326-.381.42-.189.106.22.271.126.381.151A.353.353,0,0,1,64.573,63.344Z"/><path class="cls-3" d="M64.247,63.324c-.006.014-.071.105-.057.156.023.083-.127.1-.185.086s-.11-.069-.18-.08c-.109-.019-.083-.134-.061-.162s.09-.106.06-.16c-.044-.081.141-.164.181-.081s.118.054.165.065A.151.151,0,0,1,64.247,63.324Z"/><path class="cls-1" d="M64.142,63.318c0,.008-.04.06-.032.09.013.048-.074.059-.107.05s-.063-.04-.1-.047c-.062-.01-.048-.077-.035-.093s.052-.061.035-.092c-.026-.047.081-.095.1-.047s.068.031.095.037A.088.088,0,0,1,64.142,63.318Z"/><path class="cls-2" d="M64.088,63.315c0,.005-.025.037-.02.056s-.046.037-.066.031-.039-.025-.064-.029-.03-.048-.023-.058.033-.038.022-.057.051-.059.065-.029.042.019.059.023A.053.053,0,0,1,64.088,63.315Z"/><path class="cls-3" d="M64.052,63.313s-.015.022-.012.033-.027.021-.039.018-.023-.015-.038-.017-.017-.028-.013-.034.019-.022.013-.034.03-.034.038-.017.025.011.035.014A.031.031,0,0,1,64.052,63.313Z"/><path class="cls-1" d="M64.032,63.312s-.009.014-.007.02-.017.014-.024.012a.175.175,0,0,0-.024-.011c-.014,0-.011-.018-.008-.021s.012-.014.008-.021S64,63.269,64,63.28s.015.007.021.009A.018.018,0,0,1,64.032,63.312Z"/><path class="cls-2" d="M64.022,63.311a.023.023,0,0,0-.005.014c0,.007-.011.009-.017.008s-.009-.006-.015-.008-.008-.011-.006-.014.008-.009.005-.014S64,63.282,64,63.29s.011.005.015.006A.012.012,0,0,1,64.022,63.311Z"/><path class="cls-3" d="M64.013,63.311l0,.008s-.007,0-.01,0l-.009,0c-.005,0,0-.007,0-.008l0-.008s.007-.009.009,0,.006,0,.009,0Z"/><path class="cls-1" d="M71.383,99.051a23.306,23.306,0,0,1-6.188-.712l-.1-.028,24.244-14a10.849,10.849,0,0,0,.308,3.624,5.82,5.82,0,0,1-.916,5.395C85.726,97.283,77.852,99.051,71.383,99.051Z"/><path class="cls-1" d="M87.912,86.871a10.743,10.743,0,0,0,.292,1.466,4.358,4.358,0,0,1-.664,4.087c-2.3,3.019-8.943,5.127-16.158,5.127-.646,0-1.273-.018-1.874-.055l18.4-10.625m3.424-5.441L61.6,98.6a24.46,24.46,0,0,0,3.18,1.18,24.705,24.705,0,0,0,6.606.771c9.51,0,22.275-3.72,19.714-13.011a12.228,12.228,0,0,1,.24-6.11Z"/><path class="cls-1" d="M125.936,66.94c-1.61,3.37-17.79,26.15-14.24,39.02,3.58,12.98-9.83,19.78-23.88,22.04H67.4c-.71-.14-1.39-.31-2.02-.49-9.55-2.78-18.57-9.47-28.71-14.51l8-4.63c7.07,3.91,13.64,8.26,20.52,10.27,12.35,3.59,44.85-.68,39.92-18.57-3.06-11.09,10.88-30.72,12.28-33.63.01-.02.02-.05.03-.07l10.38-5.99A20.583,20.583,0,0,1,125.936,66.94Z"/><path class="cls-2" d="M117.386,66.44c-1.4,2.91-15.34,22.54-12.28,33.63,4.93,17.89-27.57,22.16-39.92,18.57-6.88-2.01-13.45-6.36-20.52-10.27l9.23-5.32a53.259,53.259,0,0,0,11.06,5.14c10.02,2.92,36.39-.55,32.39-15.06-1.36-4.95,1.44-12,4.44-17.73l15.63-9.03C117.406,66.39,117.4,66.42,117.386,66.44Z"/><path class="cls-3" d="M97.346,93.13c4,14.51-22.37,17.98-32.39,15.06a53.259,53.259,0,0,1-11.06-5.14l7.7-4.45a24.46,24.46,0,0,0,3.18,1.18c8.14,2.37,29.57-.45,26.32-12.24a12.228,12.228,0,0,1,.24-6.11l10.45-6.03C98.786,81.13,95.986,88.18,97.346,93.13Z"/></svg>