<svg id="images" xmlns="http://www.w3.org/2000/svg" viewBox="0 0 128 128"><defs><style>.cls-1{fill:#fff;}.cls-2{fill:#407f47;}.cls-3{fill:#96ff2c;}</style></defs><title>alert_</title><path class="cls-1" d="M41.506,124.144A10.41,10.41,0,0,1,39.582,128H0V98.165a17.394,17.394,0,0,1,28.784,13.223,10.451,10.451,0,0,1,12.722,12.756Z"/><path class="cls-2" d="M89.806,49.555c3.217,0,3.223-5,0-5s-3.222,5,0,5Z"/><path class="cls-1" d="M94.457,75.027a1,1,0,0,0,0-2,1,1,0,0,0,0,2Z"/><path class="cls-1" d="M33.409,65.5a1.5,1.5,0,0,0,0-3,1.5,1.5,0,0,0,0,3Z"/><path class="cls-1" d="M55.161,32.709a1,1,0,0,0,0-2,1,1,0,0,0,0,2Z"/><path class="cls-1" d="M101.2,19.56c3.217,0,3.222-5,0-5s-3.223,5,0,5Z"/><path class="cls-1" d="M52.137,65a1,1,0,0,0,0-2,1,1,0,0,0,0,2Z"/><path class="cls-3" d="M110.288,101.9l.465-.233c.575-.288.069-1.15-.5-.863l-.465.232c-.576.288-.07,1.151.5.864Z"/><path class="cls-1" d="M50.511,119.357a1,1,0,0,0,0-2,1,1,0,0,0,0,2Z"/><path class="cls-1" d="M13.075,98.081a1.5,1.5,0,0,0,0-3,1.5,1.5,0,0,0,0,3Z"/><path class="cls-2" d="M54.231,89.478a1.5,1.5,0,0,0,0-3,1.5,1.5,0,0,0,0,3Z"/><path class="cls-1" d="M80.253,56.973a1.5,1.5,0,0,0,0-3,1.5,1.5,0,0,0,0,3Z"/><path class="cls-2" d="M106.315,46a1.5,1.5,0,0,0,0-3,1.5,1.5,0,0,0,0,3Z"/><path class="cls-1" d="M71.437,101.6c2.574,0,2.578-4,0-4s-2.578,4,0,4Z"/><path class="cls-1" d="M102.006,113.97a1.5,1.5,0,0,0,0-3,1.5,1.5,0,0,0,0,3Z"/><path class="cls-3" d="M89.574,84.328a1,1,0,0,0,0-2,1,1,0,0,0,0,2Z"/><path class="cls-3" d="M109.57,72.9a.5.5,0,0,0,0-1,.5.5,0,0,0,0,1Z"/><path class="cls-3" d="M55.727,48.664a1,1,0,0,0,0-2,1,1,0,0,0,0,2Z"/><path class="cls-1" d="M72.367,20.188a1.5,1.5,0,0,0,0-3,1.5,1.5,0,0,0,0,3Z"/><path class="cls-1" d="M16.7,60.045a1,1,0,0,0,0-2,1,1,0,0,0,0,2Z"/><path class="cls-1" d="M30.514,96.849a.5.5,0,0,0,0-1,.5.5,0,0,0,0,1Z"/><path class="cls-1" d="M20.516,124.053a.5.5,0,0,0,0-1,.5.5,0,0,0,0,1Z"/><path class="cls-1" d="M36.792,81.27a.5.5,0,0,0,0-1,.5.5,0,0,0,0,1Z"/><path class="cls-1" d="M38.885,108.707a.5.5,0,0,0,0-1,.5.5,0,0,0,0,1Z"/><path class="cls-1" d="M69.345,73.132a.5.5,0,0,0,0-1,.5.5,0,0,0,0,1Z"/><path class="cls-1" d="M50.046,27.663c2.574,0,2.578-4,0-4s-2.578,4,0,4Z"/><path class="cls-2" d="M51.208,9.492a1.5,1.5,0,0,0,0-3,1.5,1.5,0,0,0,0,3Z"/><path class="cls-1" d="M83.761,21.083a1,1,0,0,0,0-2,1,1,0,0,0,0,2Z"/><path class="cls-2" d="M113.058,12.445a.5.5,0,0,0,0-1,.5.5,0,0,0,0,1Z"/><path class="cls-1" d="M100.336,97.64a.5.5,0,0,0,0-1,.5.5,0,0,0,0,1Z"/><path class="cls-3" d="M80.253,119.868a.5.5,0,0,0,0-1,.5.5,0,0,0,0,1Z"/><path class="cls-1" d="M113.169,116.931l.233.233a.5.5,0,0,0,.707-.707l-.232-.233a.5.5,0,0,0-.708.707Z"/><path class="cls-1" d="M122.824,85.688a.5.5,0,0,0,0-1,.5.5,0,0,0,0,1Z"/><path class="cls-1" d="M106.547,61.739a.5.5,0,0,0,0-1,.5.5,0,0,0,0,1Z"/><path class="cls-1" d="M120.5,50.578a.5.5,0,0,0,0-1,.5.5,0,0,0,0,1Z"/><path class="cls-1" d="M117.708,27.361a1,1,0,0,0,0-2,1,1,0,0,0,0,2Z"/><path class="cls-1" d="M7.712,86.06c3.217,0,3.223-5,0-5s-3.222,5,0,5Z"/><path class="cls-2" d="M4.966,116.6c3.861,0,3.867-6,0-6s-3.867,6,0,6Z"/><path class="cls-1" d="M124.916,104.627c2.574,0,2.578-4,0-4s-2.578,4,0,4Z"/><path class="cls-1" d="M83.528,7.039c3.861,0,3.867-6,0-6s-3.867,6,0,6Z"/><path class="cls-1" d="M100.037,4.877c2.574,0,2.578-4,0-4s-2.578,4,0,4Z"/><path class="cls-1" d="M64.537,54.607a1.5,1.5,0,0,0,0-3,1.5,1.5,0,0,0,0,3Z"/><path class="cls-1" d="M44.233,38.754a1,1,0,0,0,0-2,1,1,0,0,0,0,2Z"/><path class="cls-1" d="M38.42,15.27a1,1,0,0,0,0-2,1,1,0,0,0,0,2Z"/><path class="cls-1" d="M25.864,36.534c3.217,0,3.222-5,0-5s-3.223,5,0,5Z"/><path class="cls-2" d="M11.68,42.28c2.574,0,2.578-4,0-4s-2.578,4,0,4Z"/><path class="cls-1" d="M18.888,13.677a1.5,1.5,0,0,0,0-3,1.5,1.5,0,0,0,0,3Z"/><path class="cls-1" d="M8.658,19.885a.5.5,0,0,0,0-1,.5.5,0,0,0,0,1Z"/><path class="cls-1" d="M38.42,25.233a.5.5,0,0,0,0-1,.5.5,0,0,0,0,1Z"/><path class="cls-1" d="M60.742,14.77a.5.5,0,0,0,0-1,.5.5,0,0,0,0,1Z"/><path class="cls-1" d="M56.556,107.544a.5.5,0,0,0,0-1,.5.5,0,0,0,0,1Z"/><path class="cls-1" d="M86.551,100.8a.5.5,0,0,0,0-1,.5.5,0,0,0,0,1Z"/><path class="cls-1" d="M70.275,81.968a.5.5,0,0,0,0-1,.5.5,0,0,0,0,1Z"/><path class="cls-3" d="M103.525,83.935a.375.375,0,0,0,0-.75.375.375,0,0,0,0,.75Z"/><path class="cls-1" d="M23.539,105.684a.5.5,0,0,0,0-1,.5.5,0,0,0,0,1Z"/><path class="cls-1" d="M70.275,112.2a.5.5,0,0,0,0-1,.5.5,0,0,0,0,1Z"/><path class="cls-3" d="M35.165,119.868a.5.5,0,0,0,0-1,.5.5,0,0,0,0,1Z"/><path class="cls-1" d="M80.971,88.478a.5.5,0,0,0,0-1,.5.5,0,0,0,0,1Z"/><path class="cls-2" d="M21.6,82.77c2.574,0,2.578-4,0-4s-2.578,4,0,4Z"/><path class="cls-1" d="M86.784,70.818a3.407,3.407,0,0,1-2.217,6.43,2.115,2.115,0,0,1-1,1.4,2.144,2.144,0,0,1-2.936-.753,1.5,1.5,0,0,1-.126-.262,2.015,2.015,0,0,1-2.674-.756,1.376,1.376,0,0,1-.121-.251,2.853,2.853,0,0,1-2.789-4.977,2.758,2.758,0,0,1,.72-.3,2.052,2.052,0,0,1,2.932-2.226,4.194,4.194,0,0,1,8.213,1.7Z"/><path class="cls-1" d="M127.875,63.8a6.515,6.515,0,0,0-4.8,1.17,7.844,7.844,0,0,0-2.44-1.43,4.787,4.787,0,0,0,.17-.77,5.151,5.151,0,0,0-9.55-3.34,2.928,2.928,0,0,0-1.47-.67,3,3,0,0,0-3.39,2.53l-.01.07a9.954,9.954,0,0,0-17.47,2.44A11.26,11.26,0,0,0,69.8,67.16a7.4,7.4,0,0,0-1.42-.37,6.8,6.8,0,0,0-5.77,1.9c-.18-.04-.36-.08-.54-.11a5.063,5.063,0,0,0-5.3,2.83,3.26,3.26,0,0,0-2.93,2.07.164.164,0,0,0-.09-.02,2.01,2.01,0,0,0-2.28,1.7,2.462,2.462,0,0,0-.02.26.835.835,0,1,0,0,1.67.842.842,0,0,0,.58-.23,2,2,0,0,0,2.62.21,3.114,3.114,0,0,0,1.75.85,3.267,3.267,0,0,0,1.89-.28,4.878,4.878,0,0,0,2.32.97,4.816,4.816,0,0,0,2.11-.14,6.709,6.709,0,0,0,3.69,1.8c.11.01.22.03.33.04a6.579,6.579,0,0,0,4.17,2.39,6.38,6.38,0,0,0,2-.02,4.829,4.829,0,0,0,4.12,4.44,4.705,4.705,0,0,0,2.34-.24,5.978,5.978,0,0,0,11.4,2.56,7.114,7.114,0,0,0,2.43.81,6.787,6.787,0,0,0,1.1.08A7.861,7.861,0,0,0,106.655,92a7.1,7.1,0,0,0,3.49,1.53,7.231,7.231,0,0,0,7.84-4.71,9.149,9.149,0,0,0,.91.18,8.894,8.894,0,0,0,8.78-4.03,3.117,3.117,0,0,0,.44.09V63.84A2,2,0,0,0,127.875,63.8Zm-21.19,8.68a.02.02,0,0,0,.02-.02c.01.01.01.02.02.03C106.715,72.49,106.7,72.48,106.685,72.48Z"/><path class="cls-1" d="M90.355,35.25a2,2,0,0,1-2,1.99,1.871,1.871,0,0,1-.59-.09h-.01a3.173,3.173,0,0,1-1.95.86,3.451,3.451,0,0,1-3.8,2.28,5.27,5.27,0,0,1-.57-.14,4.387,4.387,0,0,1-7.84.78,2.523,2.523,0,0,1-1.23.31,2.553,2.553,0,0,1-1.14-.27,5.392,5.392,0,1,1,.51-8.61,5.03,5.03,0,0,1,5.7-3.89,4.977,4.977,0,0,1,3.99,3.47,2.056,2.056,0,0,1,1.58,1.02,3.173,3.173,0,0,1,5.31.29h.04A2,2,0,0,1,90.355,35.25Z"/></svg>