<svg id="images" xmlns="http://www.w3.org/2000/svg" viewBox="0 0 122.04 122.27"><defs><style>.cls-1{fill:#fff;}</style></defs><title>alert_</title><path class="cls-1" d="M111.74,85.576a8.7,8.7,0,0,0-12.281.626,3.181,3.181,0,0,0-.327.4L86.121,74.856a22.467,22.467,0,0,0-.944-28.871L96.608,35.666a3.271,3.271,0,0,0,.327.4,8.7,8.7,0,1,0,6.655-14.524A8.7,8.7,0,1,0,88.467,26.7c.112.131.234.252.355.374L75.775,38.863a34.026,34.026,0,0,0-29.33.158L33.211,27.077c.121-.122.243-.243.355-.374a8.7,8.7,0,1,0-15.122-5.159,8.7,8.7,0,1,0,6.664,14.524,3.366,3.366,0,0,0,.327-.4L37.146,46.237A22.924,22.924,0,0,0,31.622,61a22.691,22.691,0,0,0,4.589,13.581L22.911,86.6a3.181,3.181,0,0,0-.327-.4,8.7,8.7,0,1,0-6.664,14.525,8.695,8.695,0,0,0,14.5,7.131,8.7,8.7,0,0,0,.627-12.291c-.113-.13-.234-.252-.356-.373L44.23,82.959v13.1h8.749V85.38a32.316,32.316,0,0,0,5.86.925v9.758H63.7V86.305a32.316,32.316,0,0,0,5.86-.925V96.063h8.749V83.408L91.355,95.194c-.121.121-.243.243-.355.373a8.7,8.7,0,1,0,15.113,5.16,8.7,8.7,0,0,0,5.627-15.151ZM42.389,69.014A10.279,10.279,0,0,1,38.66,61a12.364,12.364,0,0,1,1.794-5.355,8.782,8.782,0,0,1,3.225-3.505,8.1,8.1,0,0,1,4.29-1.122c2.757,0,4.767,1.421,6.468,3.458a15.406,15.406,0,0,1,1.579,2.225A8.414,8.414,0,0,1,57.287,61a10.406,10.406,0,0,1-.439,3.029A9.4,9.4,0,0,1,47.969,71,8.893,8.893,0,0,1,42.389,69.014Zm22.7,6.374A4.239,4.239,0,0,1,61.734,77.2c-1.891.067-4.349-1.2-4.327-2.042.414-2.67,1.047-5.322,4.058-6.674C63.636,69.307,65.823,74.368,65.092,75.388Zm9.468-3.906a9.574,9.574,0,0,1-9.141-7.655,10.575,10.575,0,0,1-.281-2.449A8.6,8.6,0,0,1,66.4,57.051a16.866,16.866,0,0,1,1.617-2.271c1.729-2.066,3.757-3.505,6.543-3.505a8.48,8.48,0,0,1,3.822.841,8.749,8.749,0,0,1,3.786,3.841,12.389,12.389,0,0,1,1.822,5.421,10.329,10.329,0,0,1-3.813,8.113A8.951,8.951,0,0,1,74.56,71.482Z"/></svg>