<svg id="images" xmlns="http://www.w3.org/2000/svg" viewBox="0 0 128 128"><defs><style>.cls-1{fill:#fff;}.cls-2{fill:#f70d0d;}</style></defs><title>alert_icons2</title><path class="cls-1" d="M118.57,64a54.613,54.613,0,0,1-54.576,54.563,55.7,55.7,0,0,1-6.337-.358c-.955-.107-1.9-.25-2.828-.405A54.5,54.5,0,0,1,21.89,98.705c-.262-.31-.513-.633-.752-.955a54.193,54.193,0,0,1-10.9-24.3A54.573,54.573,0,0,1,115.216,45.168,54.185,54.185,0,0,1,118.57,64Z"/><polygon class="cls-2" points="90.879 51.092 60.652 81.319 68.759 89.426 60.831 97.363 48.633 85.165 33.416 100.373 27.745 94.692 42.952 79.485 30.754 67.287 38.683 59.359 46.799 67.466 77.007 37.248 100.255 27.627 90.879 51.092"/></svg>