<svg id="images" xmlns="http://www.w3.org/2000/svg" viewBox="0 0 128 128"><defs><style>.cls-1{fill:#fff;}.cls-2{fill:#407f47;}.cls-3{fill:#ffec64;}</style></defs><title>alert_icons2</title><path class="cls-1" d="M118.569,64a54.611,54.611,0,0,1-54.575,54.563,55.689,55.689,0,0,1-6.337-.358c-.955-.107-1.9-.25-2.828-.405A54.5,54.5,0,0,1,21.89,98.705c-.263-.31-.513-.633-.752-.955a53.941,53.941,0,0,1-8.33-14.81A54.576,54.576,0,1,1,118.569,64Z"/><ellipse class="cls-2" cx="64.204" cy="66.589" rx="25.203" ry="7.446"/><path class="cls-2" d="M67.976,100.593H60.432c-9.546,0-21.43-7.739-21.43-17.285V66.589h50.4V83.308C89.407,92.854,77.522,100.593,67.976,100.593Z"/><rect class="cls-2" x="59.888" y="97.926" width="8.634" height="25.214"/><path class="cls-2" d="M84.687,128H44.229c0-8.947,3.378-14.054,7.546-14.054H77.14c4.168,0,7.547,5.107,7.547,14.054Z"/><path class="cls-2" d="M88.306,87.558V83.931c5.531,0,10.2-3.021,10.2-6.6s-4.674-6.595-10.2-6.595V67.112c7.756,0,13.832,4.49,13.832,10.223S96.062,87.558,88.306,87.558Z"/><path class="cls-2" d="M39.694,87.558c-7.756,0-13.832-4.49-13.832-10.223s6.076-10.223,13.832-10.223V70.74c-5.531,0-10.205,3.02-10.205,6.595s4.674,6.6,10.205,6.6Z"/><polygon class="cls-3" points="64 66.626 67.916 74.56 76.671 75.832 70.336 82.008 71.831 90.728 64 86.611 56.169 90.728 57.664 82.008 51.329 75.832 60.084 74.56 64 66.626"/><polygon class="cls-2" points="107.032 33.42 103.848 43.721 110.529 52.184 99.747 52.339 93.763 61.308 90.284 51.103 79.905 48.183 88.536 41.72 88.105 30.947 96.919 37.158 107.032 33.42"/><polygon class="cls-2" points="63.145 18.939 71.366 20.234 77.092 14.196 78.401 22.414 85.913 25.995 78.502 29.779 77.418 38.03 71.528 32.151 63.346 33.67 67.118 26.252 63.145 18.939"/><polygon class="cls-2" points="37.131 22.642 44.134 21.872 47.47 15.667 50.366 22.089 57.299 23.345 52.086 28.083 53.034 35.064 46.916 31.571 40.57 34.63 42.002 27.732 37.131 22.642"/><polygon class="cls-2" points="21.132 37.66 25.228 35.914 26.112 31.55 29.037 34.906 33.461 34.399 31.173 38.218 33.023 42.268 28.683 41.273 25.403 44.284 25.009 39.849 21.132 37.66"/><polygon class="cls-2" points="16.335 54.429 17.788 52.506 17.027 50.218 19.306 51.006 21.246 49.576 21.201 51.986 23.161 53.39 20.855 54.092 20.126 56.389 18.745 54.413 16.335 54.429"/></svg>