<svg id="images" xmlns="http://www.w3.org/2000/svg" viewBox="0 0 128 128"><defs><style>.cls-1{fill:#fff;}.cls-2{fill:#f70d0d;}</style></defs><title>alert_icons2</title><path class="cls-1" d="M118.569,64a54.611,54.611,0,0,1-54.575,54.563,55.689,55.689,0,0,1-6.337-.358c-.955-.107-1.9-.25-2.828-.405A54.5,54.5,0,0,1,21.89,98.705c-.263-.31-.513-.633-.752-.955a53.941,53.941,0,0,1-8.33-14.81A54.576,54.576,0,1,1,118.569,64Z"/><rect class="cls-2" x="-6.564" y="57.832" width="141.127" height="12.337" transform="translate(64 -26.51) rotate(45)"/><rect class="cls-2" x="-6.564" y="57.832" width="141.127" height="12.337" transform="translate(-26.51 64) rotate(-45)"/></svg>