<?xml version="1.0" encoding="UTF-8"?>
<svg xmlns="http://www.w3.org/2000/svg" xmlns:xlink="http://www.w3.org/1999/xlink" width="777px" height="777px" viewBox="0 0 389 388" version="1.1">
<g id="surface1">
<path style=" stroke:none;fill-rule:nonzero;fill:rgb(100%,100%,100%);fill-opacity:1;" d="M 256.105469 161.363281 L 228.636719 177.21875 L 228.601562 183.066406 L 233.039062 180.507812 C 234.660156 179.574219 236.6875 180.738281 236.6875 182.609375 L 236.6875 251.851562 C 247.964844 248.132812 256.105469 237.53125 256.105469 225.035156 Z M 256.105469 161.363281 "/>
<path style=" stroke:none;fill-rule:nonzero;fill:rgb(100%,100%,100%);fill-opacity:1;" d="M 256.105469 146.046875 L 256.105469 151.710938 L 236.6875 162.878906 L 236.6875 135.394531 L 236.703125 135.585938 C 236.703125 130.667969 232.714844 126.679688 227.777344 126.679688 C 222.847656 126.679688 218.851562 130.667969 218.851562 135.585938 L 218.867188 135.585938 L 218.867188 251.851562 C 213.230469 249.992188 208.378906 246.410156 204.933594 241.734375 C 202.84375 238.894531 201.277344 235.648438 200.359375 232.140625 C 200.097656 231.125 199.886719 230.089844 199.734375 229.03125 C 199.550781 227.722656 199.457031 226.394531 199.457031 225.035156 L 199.457031 146.046875 C 199.457031 130.445312 212.140625 117.800781 227.777344 117.800781 C 235.597656 117.800781 242.683594 120.960938 247.808594 126.074219 C 252.933594 131.1875 256.105469 138.246094 256.105469 146.046875 Z M 256.105469 146.046875 "/>
<path style=" stroke:none;fill-rule:nonzero;fill:rgb(100%,100%,100%);fill-opacity:1;" d="M 189.503906 161.363281 L 162.035156 177.21875 L 161.996094 183.066406 L 164.472656 181.640625 C 166.964844 180.203125 170.085938 181.996094 170.085938 184.871094 L 170.085938 251.851562 C 181.363281 248.132812 189.503906 237.53125 189.503906 225.035156 Z M 189.503906 161.363281 "/>
<path style=" stroke:none;fill-rule:nonzero;fill:rgb(100%,100%,100%);fill-opacity:1;" d="M 152.25 135.585938 C 152.25 130.667969 156.246094 126.683594 161.175781 126.683594 C 166.109375 126.683594 170.101562 130.667969 170.101562 135.585938 L 170.085938 135.394531 L 170.085938 162.882812 L 189.503906 151.710938 L 189.503906 146.050781 C 189.503906 138.246094 186.332031 131.1875 181.207031 126.074219 C 176.082031 120.964844 168.996094 117.800781 161.175781 117.800781 C 145.539062 117.800781 132.855469 130.445312 132.855469 146.050781 L 132.855469 225.035156 C 132.855469 231.285156 134.894531 237.058594 138.332031 241.734375 C 141.777344 246.414062 146.628906 249.992188 152.265625 251.851562 L 152.265625 135.585938 Z M 152.25 135.585938 "/>
<path style=" stroke:none;fill-rule:nonzero;fill:rgb(100%,100%,100%);fill-opacity:1;" d="M 194.496094 87.851562 C 134.015625 87.851562 102.929688 117.886719 102.929688 148.96875 L 102.929688 227.527344 C 102.929688 251.117188 123.550781 275.679688 154.539062 275.679688 C 127.628906 262.125 122.339844 238.644531 122.339844 227.527344 L 122.339844 148.96875 C 122.339844 128.191406 139.585938 96.730469 194.496094 96.730469 C 249.402344 96.730469 266.652344 128.191406 266.652344 148.96875 L 266.652344 227.527344 C 266.652344 238.644531 261.363281 262.125 234.453125 275.679688 C 265.441406 275.679688 286.0625 251.117188 286.0625 227.527344 L 286.0625 148.96875 C 286.0625 117.886719 254.976562 87.851562 194.496094 87.851562 Z M 194.496094 87.851562 "/>
<path style=" stroke:none;fill-rule:nonzero;fill:rgb(100%,94.901961%,0%);fill-opacity:1;" d="M 219.011719 275.707031 C 206.601562 282.527344 199.03125 291.464844 194.527344 300.117188 C 190.023438 291.464844 182.453125 282.527344 170.042969 275.707031 C 182.453125 268.886719 190.023438 259.949219 194.527344 251.296875 C 199.03125 259.949219 206.601562 268.886719 219.011719 275.707031 Z M 219.011719 275.707031 "/>
</g>
</svg>
