<svg id="images" xmlns="http://www.w3.org/2000/svg" viewBox="0 0 128 128"><defs><style>.cls-1{fill:#fff;}.cls-2{fill:#407f47;}</style></defs><title>alert_planettype_</title><path class="cls-1" d="M71.674,63.787C70.582,73.1,66.985,83.865,62.3,90.352c-2.145,2.98-4.534,5.061-7.014,5.69-11.92,3.019-14.091-3.584-35.248-25.023s-7.978-22.249,21-35.275c9.866-4.431,20.836,3.34,28.338,12.037C71.918,50.723,72.5,56.85,71.674,63.787Z"/><path class="cls-1" d="M90.737,20.566c-2.868-8.2-4.949-12.121-14.377-1.677-5.954,6.589-4.912,14.27-2.02,18.442,2.971,4.317,2.759,3.367,2.416,9.44s12.979,5.057,24.743.489c2.958-1.149,5.849.158,8.266-11.593S104.479,14.7,96.544,21.275C96.544,21.275,92.687,26.139,90.737,20.566Z"/><path class="cls-1" d="M102.559,61.057c-8.337,4.863-14.733,11.751-14.383,21.4S86.955,97.364,82.3,100.872s2.189,10.7,5.171,11.225,24.555-11.751,27.186-20.521S117.292,52.462,102.559,61.057Z"/><path class="cls-2" d="M101.886,40.627c-5.785-.511-4.277,9.922,3.25,12.146s8.554-7.119,5.3-9.376S107.7,41.14,101.886,40.627Z"/><path class="cls-1" d="M106.717,82.936c-4.79,1.335-5.747,4.09-3.386,6.391s2.733,7.647,6.808,3.327C114.858,87.651,108.5,81.674,106.717,82.936Z"/><path class="cls-2" d="M75.93,75.205c-1.869,3-2.972,6.81,1.55,7.2s9.73,2.2,6.61-2.971S78,71.885,75.93,75.205Z"/><path class="cls-1" d="M51.893,92.038c-5.972-3.216-3.876-10.983,1.292-9.3s10.853,1.421,6.977,5.427S55.252,93.847,51.893,92.038Z"/><path class="cls-2" d="M42.03,71.49c-4.273-3.764-10.369-3.773-7.735,4.381,2.5,7.754,4.914,12.668,8.351,5.168S44.874,73.994,42.03,71.49Z"/><path class="cls-2" d="M109.293,66.9c-1.723,3.112,1.389,10.724,6.64,7.988s8.947-1.764,4.668-7.988S109.293,66.9,109.293,66.9Z"/><path class="cls-2" d="M31.849,36.212c1.216,9.567,2.6,18.723-6.433,14.794S2.39,31.177,10.837,26.8,31.305,31.933,31.849,36.212Z"/><path class="cls-2" d="M54.017,9.635c-9.9,0-17.384,21.137,0,21.137S60.331,9.635,54.017,9.635Z"/><path class="cls-1" d="M102.414,69.158c-1.879-.737-.454,2.8-2.523,3.016-4.261.439-1.513,4.12,1.652,2.089C104.141,72.6,103.342,69.522,102.414,69.158Z"/><path class="cls-1" d="M23.823,10.923c-3.264,6.023-5.508,9.527,0,10.529s16.318,2.429,10.2-9.2S23.823,10.923,23.823,10.923Z"/><path class="cls-1" d="M76,90.675c.813,3.986-3.227,6.2-4.607,3.242s-3.17-3.3-.477-5.28C74.258,86.178,75.417,87.82,76,90.675Z"/><path class="cls-1" d="M14.868,85.574c-10.488,3.782-15.82,23.087,5.15,19.243,12.915-2.368,18.587-3.864,8.4-14.854C23.194,84.326,28.6,80.625,14.868,85.574Z"/><path class="cls-2" d="M47.617,105.754c7.367,6.861,3.854,15.344-3.747,14.359-5.652-.733-11.694-2.828-6.48-9.466S46.3,104.528,47.617,105.754Z"/><path class="cls-2" d="M56.674,103.5c-6.936,14.912,20.1,30.6,22.829,11.057C81.845,97.808,58.963,98.583,56.674,103.5Z"/></svg>