<svg id="images" xmlns="http://www.w3.org/2000/svg" viewBox="0 0 128 128"><defs><style>.cls-1{fill:#fff;}.cls-2{fill:#407f47;}</style></defs><title>alert_planettype_</title><path class="cls-1" d="M88.047,64c6.406.144,3.54-6.9,10.965-14.14,5.175-5.059,8.792-8.474,17.487-5.155A55.927,55.927,0,1,0,20.85,99.57C33.6,88.191,33.085,89.2,36.8,94.2c4.386,5.9,4.213,8.465,5.56,4.482s1.52-4.482,4.213-1.962,1.356,1.02,3.2,3.376,1.356,1.135,4.559,3.857,6.57,2.04,3.7,6.262c-1.346,1.982-.173,5.925-.529,9.33a55.926,55.926,0,0,0,45.6-15.592C92.76,97.56,79.7,88.22,74.9,79.188,67.819,65.876,81.641,63.846,88.047,64ZM42.531,87.624c-4.723,1.346-7.214-1.414-6.406-7.08.673-4.723,3.2-2.866,7.579-1.856S47.254,86.277,42.531,87.624ZM48.283,90.5c-2.684.625-1.828-1.049,0-3.463C48.283,87.037,50.967,89.875,48.283,90.5ZM61.076,43.387c-1.52,7.358-6.916,5.964-13.995,0s3.376-7.695,20.564-14.1c0,0,6.07-1.405,6.07,8.089,0,5.4-2.02,3.04-6.07,0S62.6,36.029,61.076,43.387Zm15.3,61.7c1.818,3.646-.634,3.607-1.981,2.761s-6.916-4.213-7.724-8.089S62.9,97.646,64,88.836c.394-3.175,2.3-.876,4.492,1.8s.51,3.059,2.02,7.946S74.561,101.446,76.379,105.091Zm.2-65.176s3.377.336,4.223,3.26.837,5.512-6.069,1.972S74.061,44.137,76.581,39.915Z"/><path class="cls-2" d="M119.924,64a55.681,55.681,0,0,1-16.814,39.956C92.76,97.56,79.7,88.22,74.9,79.188,67.819,65.876,81.641,63.846,88.047,64s3.54-6.9,10.965-14.14c5.175-5.059,8.792-8.474,17.487-5.155A55.754,55.754,0,0,1,119.924,64Z"/><path class="cls-2" d="M73.715,37.375c0,5.4-2.02,3.04-6.07,0s-5.049-1.346-6.569,6.012-6.916,5.964-13.995,0c-5.194-4.375-1.9-9.49,7.516-12.825,3.42-1.212,8.469.431,13.048-1.276C67.645,29.286,73.715,27.881,73.715,37.375Z"/><path class="cls-2" d="M74.735,45.147c-6.916-3.54-.674-1.01,1.846-5.232,0,0,3.377.336,4.223,3.26S81.641,48.687,74.735,45.147Z"/><path class="cls-2" d="M66.086,42.541c-3.47,1.948-1.076,7.194-3.469,10.724s9.068-.359,8.411-5.377S68.165,41.374,66.086,42.541Z"/><path class="cls-2" d="M58.036,110.218c-1.346,1.982-.173,5.925-.529,9.33A55.818,55.818,0,0,1,20.85,99.57C33.6,88.191,33.085,89.2,36.8,94.2c4.386,5.9,4.213,8.465,5.56,4.482s1.52-4.482,4.213-1.962c1.689,1.581,2.235,2.117,2.441,1.8.124-.189-.229-1.6.464-.715,1.856,2.357,1.654,3.425,4.857,6.147S60.9,106,58.036,110.218Z"/><path class="cls-2" d="M42.531,87.624c-4.723,1.346-7.214-1.414-6.406-7.08.673-4.723,3.2-2.866,7.579-1.856S47.254,86.277,42.531,87.624Z"/><path class="cls-2" d="M48.283,90.5c-2.684.625-1.828-1.049,0-3.463C48.283,87.037,50.967,89.875,48.283,90.5Z"/><path class="cls-2" d="M74.4,107.852c-1.356-.837-6.916-4.213-7.724-8.089S62.9,97.646,64,88.836c.394-3.175,2.3-.876,4.492,1.8s.51,3.059,2.02,7.946,4.049,2.866,5.867,6.511S75.745,108.7,74.4,107.852Z"/><path class="cls-2" d="M17.049,51.607C16.141,54.674,20.21,62.524,22.254,64s-2.66-7.168-2.74-9.667-1.449-1.323-.5-5.255-1.687-6.9-2.507-3.944S17.049,51.607,17.049,51.607Z"/><path class="cls-2" d="M22.42,45.622c-3.4.388-2.316-1.533-3.2-3.262s-2.734-1.576-.859-2.709,2.105-.269,3.678,3.023C22.036,42.674,25.8,45.226,22.42,45.622Z"/><path class="cls-2" d="M20.818,47.036c-.6,1.69-1.207,1.871.242,1.992s1.991.724,1.569-1.026S20.818,47.036,20.818,47.036Z"/><path class="cls-2" d="M23.272,66.215c1.523,2.861,1.778,3.906,2.86,2.754s-.6-1.3-1.319-2.783S22.813,65.355,23.272,66.215Z"/></svg>