<svg id="images" xmlns="http://www.w3.org/2000/svg" viewBox="0 0 128 128"><defs><style>.cls-1,.cls-2,.cls-3{fill:none;stroke:#407f47;stroke-miterlimit:10;}.cls-1{stroke-width:3px;}.cls-2{stroke-width:2px;}.cls-4{fill:#fff;}</style></defs><title>alert_planettype_</title><ellipse class="cls-1" cx="64" cy="70.06" rx="60.165" ry="14.856" transform="translate(-26.479 41.459) rotate(-30.046)"/><ellipse class="cls-2" cx="64" cy="70.06" rx="37.573" ry="9.278" transform="translate(-26.479 41.459) rotate(-30.046)"/><ellipse class="cls-3" cx="64" cy="70.06" rx="15.829" ry="3.908" transform="translate(-26.479 41.459) rotate(-30.046)"/><path class="cls-4" d="M69.989,74.4l-4.346,2.514c-2.005,1.159-5.129-.309-7.36-3.458L29.4,29.236c-2.774-3.915-3.028-8.75-.536-10.192L37.3,14.165c2.493-1.442,6.557,1.189,8.568,5.546L69.8,66.8C71.414,70.3,71.994,73.242,69.989,74.4Z"/><path class="cls-4" d="M71.371,78.788,68.756,80.3a4.588,4.588,0,0,0-2.194,5.473l12.779,25.811a4.439,4.439,0,0,0,6.5,1.965l4.972-2.876a4.438,4.438,0,0,0,1.536-6.612l-16-23.946C74.989,78.481,73.376,77.629,71.371,78.788Z"/><path class="cls-3" d="M77.7,62.134C78.783,64,73.524,69.066,65.957,73.443S51.379,79.854,50.3,77.986"/><path class="cls-1" d="M116.08,39.935c4.109,7.1-15.878,26.347-44.642,42.985s-55.41,24.367-59.518,17.265"/></svg>