<svg id="images" xmlns="http://www.w3.org/2000/svg" viewBox="0 0 128 128"><defs><style>.cls-1{fill:#407f47;}.cls-2{fill:#fff;}</style></defs><title>alert_planettype_</title><path class="cls-1" d="M66.5,10.39a2.5,2.5,0,0,1-2.5,2.5c-4.61,0-8.36,2.41-11.15,7.15-2.59,4.41-4.09,10.67-4.09,17.16,0,6.26,1.37,12.78,4.24,17.49a14.179,14.179,0,0,0-2.7,4.85c-4.44-5.73-6.54-14.22-6.54-22.34,0-7.46,1.7-14.46,4.78-19.7,3.7-6.28,9.05-9.61,15.46-9.61A2.5,2.5,0,0,1,66.5,10.39Z"/><path class="cls-2" d="M103.67,27.86a2.487,2.487,0,0,1-3.53,0c-7.4-7.4-19.68-1.86-27.96,6.41-4.43,4.43-8.08,10.01-9.37,15.37a14.017,14.017,0,0,0-5.34,1.52c.91-7.19,5.43-14.68,11.17-20.42,9.98-9.98,25.2-16.25,35.03-6.41A2.487,2.487,0,0,1,103.67,27.86Z"/><path class="cls-1" d="M120.11,64a2.5,2.5,0,0,1-5,0c0-4.61-2.41-8.36-7.15-11.15-4.41-2.59-10.67-4.08-17.16-4.08-6.26,0-12.78,1.36-17.49,4.23a14.179,14.179,0,0,0-4.85-2.7c5.73-4.43,14.22-6.53,22.34-6.53C104.92,43.77,120.11,50.1,120.11,64Z"/><path class="cls-2" d="M103.67,103.67a2.461,2.461,0,0,1-1.76.74,2.505,2.505,0,0,1-1.77-4.27c7.4-7.4,1.86-19.68-6.41-27.96-4.43-4.42-10.01-8.07-15.37-9.37a14.017,14.017,0,0,0-1.52-5.34c7.19.92,14.68,5.44,20.42,11.18C107.24,78.62,113.5,93.84,103.67,103.67Z"/><path class="cls-1" d="M84.24,90.8c0,7.46-1.7,14.46-4.78,19.7-3.7,6.28-9.05,9.61-15.46,9.61a2.5,2.5,0,0,1,0-5c4.61,0,8.36-2.41,11.15-7.15,2.59-4.41,4.09-10.67,4.09-17.16,0-6.26-1.37-12.78-4.24-17.49a14.179,14.179,0,0,0,2.7-4.85C82.14,74.19,84.24,82.68,84.24,90.8Z"/><path class="cls-2" d="M70.53,76.84c-.91,7.19-5.43,14.68-11.17,20.42-6.46,6.45-15.1,11.35-23.06,11.35a16.387,16.387,0,0,1-11.97-4.94,2.5,2.5,0,0,1,3.53-3.53c7.4,7.4,19.68,1.86,27.96-6.41,4.43-4.43,8.08-10.01,9.37-15.37A14.017,14.017,0,0,0,70.53,76.84Z"/><path class="cls-2" d="M70.53,76.84c-.91,7.19-5.43,14.68-11.17,20.42-6.46,6.45-15.1,11.35-23.06,11.35a16.387,16.387,0,0,1-11.97-4.94,2.5,2.5,0,0,1,3.53-3.53c7.4,7.4,19.68,1.86,27.96-6.41,4.43-4.43,8.08-10.01,9.37-15.37A14.017,14.017,0,0,0,70.53,76.84Z"/><path class="cls-1" d="M59.54,77.7c-5.73,4.43-14.22,6.53-22.34,6.53-7.46,0-14.46-1.69-19.7-4.77C11.21,75.76,7.89,70.41,7.89,64a2.5,2.5,0,0,1,5,0c0,10.47,12.6,15.23,24.31,15.23,6.26,0,12.78-1.36,17.49-4.23A14.179,14.179,0,0,0,59.54,77.7Z"/><path class="cls-2" d="M51.16,70.53c-7.19-.91-14.68-5.43-20.42-11.18-5.28-5.27-9.02-11.42-10.55-17.3-1.83-7.06-.4-13.19,4.14-17.72a2.5,2.5,0,0,1,3.53,3.53c-7.4,7.4-1.86,19.68,6.41,27.96,4.43,4.43,10.01,8.08,15.37,9.37A14.017,14.017,0,0,0,51.16,70.53Z"/><path class="cls-1" d="M78.36,62.81a14.6,14.6,0,0,0-7.71.02,17.82,17.82,0,0,1,7.05,5.63A14.267,14.267,0,0,0,78.41,64C78.41,63.6,78.39,63.2,78.36,62.81Zm-24.57,7.9a19.482,19.482,0,0,1-2.63-.18A14.248,14.248,0,0,0,54.69,75a14.526,14.526,0,0,0,5.43-5.47A16.9,16.9,0,0,1,53.79,70.71Zm3.68-19.55A14.248,14.248,0,0,0,53,54.69a14.648,14.648,0,0,0,5.46,5.43A17.884,17.884,0,0,1,57.47,51.16ZM73.31,53a14.648,14.648,0,0,0-5.43,5.46,17.884,17.884,0,0,1,8.96-.99A14.248,14.248,0,0,0,73.31,53ZM64,49.59c-.4,0-.8.02-1.19.05a14.6,14.6,0,0,0,.02,7.71,17.82,17.82,0,0,1,5.63-7.05A14.267,14.267,0,0,0,64,49.59ZM50.3,59.54A14.267,14.267,0,0,0,49.59,64c0,.4.02.8.05,1.19a14.745,14.745,0,0,0,7.72-.01A17.962,17.962,0,0,1,50.3,59.54ZM65.17,70.65a17.82,17.82,0,0,1-5.63,7.05,14.267,14.267,0,0,0,4.46.71c.4,0,.8-.02,1.19-.05A14.6,14.6,0,0,0,65.17,70.65Zm4.37-2.77a17.884,17.884,0,0,1,.99,8.96A14.248,14.248,0,0,0,75,73.31,14.648,14.648,0,0,0,69.54,67.88Z"/><path d="M77.7,68.46A14.179,14.179,0,0,1,75,73.31a14.648,14.648,0,0,0-5.46-5.43,17.884,17.884,0,0,1,.99,8.96,14.017,14.017,0,0,1-5.34,1.52,14.6,14.6,0,0,0-.02-7.71,17.82,17.82,0,0,1-5.63,7.05A14.179,14.179,0,0,1,54.69,75a14.526,14.526,0,0,0,5.43-5.47,16.9,16.9,0,0,1-6.33,1.18,19.482,19.482,0,0,1-2.63-.18,14.017,14.017,0,0,1-1.52-5.34,14.745,14.745,0,0,0,7.72-.01,17.962,17.962,0,0,1-7.06-5.64A14.179,14.179,0,0,1,53,54.69a14.648,14.648,0,0,0,5.46,5.43,17.884,17.884,0,0,1-.99-8.96,14.017,14.017,0,0,1,5.34-1.52,14.6,14.6,0,0,0,.02,7.71,17.82,17.82,0,0,1,5.63-7.05A14.179,14.179,0,0,1,73.31,53a14.648,14.648,0,0,0-5.43,5.46,17.884,17.884,0,0,1,8.96-.99,14.017,14.017,0,0,1,1.52,5.34,14.6,14.6,0,0,0-7.71.02A17.82,17.82,0,0,1,77.7,68.46Z"/><circle class="cls-1" cx="64" cy="64" r="7.964"/></svg>