<svg id="images" xmlns="http://www.w3.org/2000/svg" viewBox="0 0 128 128"><defs><style>.cls-1{fill:#407f47;}.cls-2{fill:#fff;}</style></defs><title>alert_planettype_</title><path class="cls-1" d="M84.884,18.7c0,10.588-9.35,50.026-20.884,50.026S43.116,29.291,43.116,18.7,52.466,6.65,64,6.65,84.884,8.116,84.884,18.7Z"/><path class="cls-1" d="M87.768,117.658C79.612,110.172,55.844,76.216,64,68.729s45.147,14.331,53.3,21.818,2.673,14.592-5.483,22.079S95.924,125.145,87.768,117.658Z"/><path class="cls-1" d="M10.7,90.547c8.156-7.487,45.147-29.3,53.3-21.818s-15.612,41.443-23.768,48.929-15.9,2.455-24.052-5.032S2.541,98.033,10.7,90.547Z"/><path class="cls-2" d="M36.917,45.546C43.733,48.1,66.83,62.584,64,68.729S33.484,70.352,26.667,67.8,21.2,59.914,24.031,53.769,30.1,43,36.917,45.546Z"/><path class="cls-2" d="M101.009,67.542C94.223,70.163,66.732,74.912,64,68.729S84.328,47.774,91.114,45.153s9.94,2.029,12.673,8.211S107.794,64.922,101.009,67.542Z"/><path class="cls-2" d="M50.421,100.354C50.511,93.6,56.734,68.562,64,68.729S76.823,94.2,76.734,100.957s-5.992,7.558-13.258,7.392S50.332,107.111,50.421,100.354Z"/><ellipse class="cls-1" cx="64" cy="68.729" rx="6.794" ry="6.237"/></svg>