<svg id="images" xmlns="http://www.w3.org/2000/svg" viewBox="0 0 128 128"><defs><style>.cls-1{fill:#407f47;}.cls-2{fill:#fff;}</style></defs><title>alert_</title><path class="cls-1" d="M106.731,87.216l-2.672-4.226a26.041,26.041,0,0,1,2.613-1.308,26.135,26.135,0,0,0,3.85-2.015,25.532,25.532,0,0,0,3.56-4.448,22.37,22.37,0,0,0,3.627-10.069c.162-2.557-.447-4.47-1.672-5.25-2.2-1.4-6.633.6-10.317,4.651a26.333,26.333,0,0,0-2.739,3.592l-4.217-2.688a31.353,31.353,0,0,1,3.259-4.271c5.557-6.11,12.272-8.322,16.7-5.5,2.849,1.815,4.261,5.289,3.977,9.784A27.1,27.1,0,0,1,118.3,77.9a30.653,30.653,0,0,1-4.26,5.317c-.983.976-2.8,1.859-5.269,3C107.96,86.6,107.04,87.021,106.731,87.216Z"/><path class="cls-1" d="M128.121,90.89v12.3c-1.79,1.9-4.55,2.88-7.84,2.88a23.019,23.019,0,0,1-8.73-1.93l-.06-.03a30.145,30.145,0,0,1-4.7-2.46l2.69-4.22c.2.13.4.25.6.37a24.109,24.109,0,0,0,3.4,1.72c5.05,2.13,9.91,2.06,11.31-.14.79-1.23.53-3.22-.7-5.47a22.389,22.389,0,0,0-7.54-7.58,26.175,26.175,0,0,0-3.91-2.06c-.4-.17-.81-.33-1.21-.48a27.834,27.834,0,0,0-4.34-.19h-.17c-1.03,0-1.88,0-2.51-.06a1.641,1.641,0,0,1-.23-.02l.04-.28.04-.37.55-4.31a7.989,7.989,0,0,0,.99.04h1.28a36.924,36.924,0,0,1,4.33.14,7.546,7.546,0,0,1,1.72.35,30.972,30.972,0,0,1,3.31,1.44,29.709,29.709,0,0,1,2.79,1.58A27.627,27.627,0,0,1,128.121,90.89Z"/><polygon class="cls-1" points="49.65 54.661 48.438 57.707 50.26 60.433 46.989 60.221 44.96 62.796 44.15 59.62 41.074 58.486 43.845 56.734 43.973 53.458 46.495 55.552 49.65 54.661"/><rect class="cls-2" x="33.25" y="58.275" width="61.5" height="61.5"/><rect class="cls-1" x="33.25" y="82.254" width="61.5" height="13.542"/><rect class="cls-1" x="57.229" y="58.275" width="13.542" height="61.5"/><polygon class="cls-2" points="54.368 20.838 60.193 23.588 65.761 20.349 64.945 26.738 69.746 31.032 63.417 32.231 60.817 38.124 57.721 32.475 51.313 31.823 55.728 27.134 54.368 20.838"/><polygon class="cls-2" points="77.972 33.529 80.578 36.629 84.609 36.239 82.466 39.676 84.082 43.39 80.151 42.413 77.119 45.098 76.833 41.058 73.342 39.003 77.096 37.483 77.972 33.529"/><polygon class="cls-2" points="80.9 10.357 79.685 13.41 81.511 16.141 78.232 15.929 76.199 18.509 75.388 15.326 72.306 14.189 75.082 12.434 75.211 9.152 77.738 11.25 80.9 10.357"/><path class="cls-1" d="M90.792,54.68c.906-1.778,1.986-3.421,2.973-5.136,1.054-1.663,2.122-3.314,3.241-4.925,1.086-1.638,2.272-3.2,3.407-4.8l3.558-4.676c1.236-1.52,2.45-3.057,3.7-4.563,1.282-1.483,2.519-3,3.852-4.446,1.3-1.469,2.651-2.9,4.017-4.316,1.43-1.367,2.769-2.8,4.28-4.109l.157.124L105.543,36.382,90.949,54.8Z"/><path class="cls-1" d="M38.524,54.8c-1.513-1.3-2.853-2.74-4.284-4.106-1.366-1.417-2.718-2.846-4.017-4.316-1.334-1.442-2.568-2.964-3.852-4.445l-3.7-4.566c-1.184-1.561-2.389-3.1-3.555-4.679-1.137-1.6-2.319-3.159-3.406-4.8-1.12-1.61-2.188-3.262-3.241-4.925-.989-1.713-2.069-3.355-2.977-5.132l.157-.124L24.244,36.136,38.681,54.68Z"/><path class="cls-2" d="M88.263,54.556a34.9,34.9,0,0,1,1.018-5.872c.214-.963.518-1.894.777-2.841l.915-2.792c.676-1.838,1.379-3.667,2.223-5.446a35.333,35.333,0,0,1,2.891-5.21l.141.05-3.841,11.1L88.4,54.606Z"/><path class="cls-2" d="M41,54.606A35.019,35.019,0,0,1,38.109,49.4c-.438-.884-.785-1.8-1.178-2.7L35.89,43.949c-.628-1.855-1.229-3.72-1.689-5.634a35.424,35.424,0,0,1-1.022-5.87l.142-.05L37.3,43.45l3.842,11.106Z"/><polygon class="cls-1" points="58.363 10.28 55.932 14.218 57.799 18.453 53.302 17.359 49.851 20.443 49.502 15.828 45.503 13.499 49.784 11.741 50.764 7.217 53.758 10.746 58.363 10.28"/><polygon class="cls-1" points="63.74 49.68 65.51 49.777 66.593 48.375 67.047 50.087 68.716 50.684 67.227 51.646 67.175 53.417 65.801 52.298 64.1 52.796 64.739 51.143 63.74 49.68"/><polygon class="cls-1" points="92.023 20.166 92.987 22.426 95.394 22.912 93.543 24.527 93.824 26.967 91.716 25.706 89.483 26.727 90.031 24.333 88.37 22.524 90.816 22.305 92.023 20.166"/><polygon class="cls-2" points="54.545 42.518 53.75 44.516 54.945 46.303 52.8 46.164 51.469 47.853 50.938 45.77 48.921 45.026 50.738 43.877 50.822 41.729 52.476 43.102 54.545 42.518"/><polygon class="cls-1" points="36.289 31.977 39.057 32.129 40.752 29.934 41.463 32.615 44.074 33.548 41.744 35.053 41.663 37.824 39.513 36.074 36.852 36.853 37.852 34.267 36.289 31.977"/><rect class="cls-2" x="66.299" y="79.524" width="73.92" height="6.859" transform="translate(161.76 -35.879) rotate(77.434)"/></svg>
