<svg id="images" xmlns="http://www.w3.org/2000/svg" viewBox="0 0 128 128"><defs><style>.cls-1,.cls-3{fill:#b2fffc;}.cls-2{fill:#d23191;}.cls-3{stroke:#d23191;stroke-miterlimit:10;stroke-width:5px;}.cls-4{fill:#9a2883;}</style></defs><title>alert_biome_corrupted</title><path class="cls-1" d="M0,75.169v2.2a44.782,44.782,0,0,0,4.811-2.2A57.278,57.278,0,0,0,13.6,69.36l-1.856-2.346A50.374,50.374,0,0,1,0,74.161Z"/><path class="cls-1" d="M63.069,69.359c-16.641-13.206-32.82-13.206-49.461,0l-1.862-2.345c17.646-14,35.539-14,53.185,0Z"/><path class="cls-1" d="M89.661,79.861c-8.884,0-17.769-3.5-26.592-10.5l1.862-2.345c16.641,13.206,32.82,13.206,49.461,0l1.862,2.345C107.431,76.361,98.546,79.861,89.661,79.861Z"/><path class="cls-1" d="M128,59.009v3.2a50.374,50.374,0,0,0-11.748,7.147L114.4,67.014A52.372,52.372,0,0,1,128,59.009Z"/><path class="cls-2" d="M12.676,75.169A51.1,51.1,0,0,1,0,82.745V75.169Z"/><path class="cls-2" d="M12.677,75.173q25.662-20.366,51.323,0Z"/><path class="cls-2" d="M64,75.173q25.662,20.365,51.323,0Z"/><path class="cls-2" d="M128,67.6v7.566H115.324A50.744,50.744,0,0,1,128,67.6Z"/><path class="cls-1" d="M0,89.143v2.2a44.782,44.782,0,0,0,4.811-2.2A57.352,57.352,0,0,0,13.6,83.334l-1.856-2.346A50.374,50.374,0,0,1,0,88.135Z"/><path class="cls-1" d="M63.069,83.333c-16.641-13.206-32.82-13.206-49.461,0l-1.862-2.345c17.646-14,35.539-14,53.185,0Z"/><path class="cls-1" d="M89.661,93.835c-8.884,0-17.769-3.5-26.592-10.5l1.862-2.345c16.641,13.2,32.82,13.2,49.461,0l1.862,2.345C107.431,90.334,98.546,93.835,89.661,93.835Z"/><path class="cls-1" d="M128,75.169V72.983a46.426,46.426,0,0,0-4.791,2.186,57.584,57.584,0,0,0-8.813,5.819l1.856,2.346A50.374,50.374,0,0,1,128,76.187Z"/><path class="cls-1" d="M0,111.1v2.2a44.782,44.782,0,0,0,4.811-2.2,57.352,57.352,0,0,0,8.793-5.809l-1.856-2.346A50.374,50.374,0,0,1,0,110.094Z"/><path class="cls-1" d="M63.069,105.292c-16.641-13.206-32.82-13.206-49.461,0l-1.862-2.346c17.646-14,35.539-14,53.185,0Z"/><path class="cls-1" d="M89.661,115.793c-8.884,0-17.769-3.5-26.592-10.5l1.862-2.346c16.641,13.206,32.82,13.206,49.461,0l1.862,2.346C107.431,112.293,98.546,115.793,89.661,115.793Z"/><path class="cls-1" d="M128,94.942v3.2a50.34,50.34,0,0,0-11.748,7.147l-1.857-2.346A52.372,52.372,0,0,1,128,94.942Z"/><path class="cls-2" d="M12.676,111.1A51.1,51.1,0,0,1,0,118.677V111.1Z"/><path class="cls-2" d="M12.677,111.106q25.662-20.365,51.323,0Z"/><path class="cls-2" d="M64,111.106q25.662,20.364,51.323,0Z"/><path class="cls-2" d="M128,103.536V111.1H115.324A50.744,50.744,0,0,1,128,103.536Z"/><path class="cls-1" d="M0,125.075v2.2a44.4,44.4,0,0,0,4.811-2.2,57.278,57.278,0,0,0,8.793-5.809l-1.856-2.345A50.368,50.368,0,0,1,0,124.067Z"/><path class="cls-1" d="M63.069,119.265c-16.641-13.2-32.82-13.2-49.461,0l-1.862-2.345c17.646-14,35.539-14,53.185,0Z"/><path class="cls-1" d="M116.252,119.266a57.285,57.285,0,0,1-8.794,5.809A43.259,43.259,0,0,1,100.571,128H78.752a43.337,43.337,0,0,1-6.887-2.925,57.278,57.278,0,0,1-8.793-5.809l1.856-2.345a47.8,47.8,0,0,0,14.413,8.154,31.4,31.4,0,0,0,20.642,0,47.908,47.908,0,0,0,14.412-8.154Z"/><path class="cls-1" d="M128,111.1v-2.186a46.215,46.215,0,0,0-4.791,2.186,57.51,57.51,0,0,0-8.813,5.819l1.856,2.345A50.368,50.368,0,0,1,128,112.12Z"/><path class="cls-2" d="M12.676,125.075c-1.337,1.058-2.665,2.037-4,2.925H0v-2.925Z"/><path class="cls-2" d="M12.677,125.079q25.662-20.364,51.323,0Z"/><path class="cls-2" d="M115.324,125.075c-1.338,1.058-2.665,2.037-4,2.925H68.012c-1.337-.888-2.674-1.867-4.012-2.925Z"/><path class="cls-2" d="M128,117.51v7.565H115.324A50.739,50.739,0,0,1,128,117.51Z"/><path class="cls-1" d="M60.976,128h-5.71a39.484,39.484,0,0,0-6.627-2.925,31.4,31.4,0,0,0-20.592,0A39.555,39.555,0,0,0,21.42,128H15.7a53.289,53.289,0,0,1,4.86-2.925c11.828-6.248,23.726-6.248,35.554,0A53.3,53.3,0,0,1,60.976,128Z"/><path class="cls-1" d="M128,125.075V122.89a46.2,46.2,0,0,0-4.791,2.185A53.3,53.3,0,0,0,118.348,128h5.709A37.4,37.4,0,0,1,128,126.094Z"/><path class="cls-3" d="M117,64c-9.248,9.248-23.73,24.726-53,24.726S25.629,78.631,11,64c11.578-11.577,23.73-24.726,53-24.726S106.261,53.26,117,64Z"/><ellipse class="cls-2" cx="64" cy="64" rx="16.331" ry="18.082"/><ellipse class="cls-1" cx="64" cy="64" rx="9.742" ry="10.787"/><ellipse class="cls-4" cx="64" cy="64" rx="3.75" ry="4.152"/><path class="cls-1" d="M0,4.3V6.5A44.782,44.782,0,0,0,4.811,4.3,53.841,53.841,0,0,0,11.618,0H6.3A43.858,43.858,0,0,1,0,3.294Z"/><path class="cls-1" d="M114.266,0a53.85,53.85,0,0,1-6.808,4.3,37.839,37.839,0,0,1-17.8,4.691A37.846,37.846,0,0,1,71.865,4.3,53.841,53.841,0,0,1,65.058,0h5.32a41.716,41.716,0,0,0,8.963,4.3,31.4,31.4,0,0,0,20.642,0A42.448,42.448,0,0,0,108.946,0Z"/><path class="cls-2" d="M12.676,4.3A51.1,51.1,0,0,1,0,11.878V4.3Z"/><path class="cls-2" d="M33.278,0H18.855a56.327,56.327,0,0,0-6.179,4.3H64A56.318,56.318,0,0,0,57.822,0H33.278Z"/><path class="cls-2" d="M64,4.306q25.662,20.365,51.323,0Z"/><path class="cls-2" d="M128,0V4.3H115.324A56.318,56.318,0,0,1,121.5,0Z"/><path class="cls-1" d="M0,18.276v2.2a44.782,44.782,0,0,0,4.811-2.2A57.352,57.352,0,0,0,13.6,12.467l-1.856-2.346A50.374,50.374,0,0,1,0,17.268Z"/><path class="cls-1" d="M33.278,0A39.89,39.89,0,0,0,20.561,4.3a57.51,57.51,0,0,0-8.813,5.819L13.6,12.467A47.881,47.881,0,0,1,28.047,4.3a31.383,31.383,0,0,1,20.592,0,47.721,47.721,0,0,1,14.433,8.165l1.856-2.346A57.51,57.51,0,0,0,56.115,4.3,39.877,39.877,0,0,0,43.4,0Z"/><path class="cls-1" d="M89.661,22.967c-8.884,0-17.769-3.5-26.592-10.5l1.862-2.346c16.641,13.206,32.82,13.206,49.461,0l1.862,2.346C107.431,19.467,98.546,22.967,89.661,22.967Z"/><path class="cls-1" d="M128,4.3V2.116A46.426,46.426,0,0,0,123.209,4.3a57.51,57.51,0,0,0-8.813,5.819l1.856,2.346A50.34,50.34,0,0,1,128,5.32Z"/><path class="cls-2" d="M12.676,18.276A51.13,51.13,0,0,1,0,25.852V18.276Z"/><path class="cls-2" d="M12.677,18.28Q38.339-2.086,64,18.28Z"/><path class="cls-2" d="M64,18.28q25.662,20.364,51.323,0Z"/><path class="cls-2" d="M128,10.71v7.566H115.324A50.744,50.744,0,0,1,128,10.71Z"/><path class="cls-1" d="M13.605,26.44a52.316,52.316,0,0,1-13.6,8v-3.2A50.368,50.368,0,0,0,11.748,24.1Z"/><path class="cls-1" d="M63.069,26.439c-16.641-13.2-32.82-13.2-49.461,0l-1.862-2.345c17.646-14,35.539-14,53.185,0Z"/><path class="cls-1" d="M89.661,36.941c-8.884,0-17.769-3.5-26.592-10.5l1.862-2.345c16.641,13.206,32.82,13.206,49.461,0l1.862,2.345C107.431,33.441,98.546,36.941,89.661,36.941Z"/><path class="cls-1" d="M128,18.276V16.09a46.215,46.215,0,0,0-4.791,2.186A57.51,57.51,0,0,0,114.4,24.1l1.856,2.345A50.368,50.368,0,0,1,128,19.294Z"/><path class="cls-1" d="M0,40.235v2.2a44.577,44.577,0,0,0,4.811-2.2,57.361,57.361,0,0,0,8.793-5.81L11.748,32.08A50.334,50.334,0,0,1,0,39.226Z"/><path class="cls-1" d="M63.069,34.425c-16.641-13.206-32.82-13.206-49.461,0l-1.862-2.346c17.646-14,35.539-14,53.185,0Z"/><path class="cls-1" d="M89.661,44.926c-8.884,0-17.769-3.5-26.592-10.5l1.862-2.346c16.641,13.206,32.82,13.206,49.461,0l1.862,2.346C107.431,41.426,98.546,44.926,89.661,44.926Z"/><path class="cls-1" d="M128,24.075v3.2a50.368,50.368,0,0,0-11.748,7.146L114.4,32.08A52.372,52.372,0,0,1,128,24.075Z"/><path class="cls-2" d="M12.676,40.235A51.1,51.1,0,0,1,0,47.81V40.235Z"/><path class="cls-2" d="M12.677,40.239q25.662-20.365,51.323,0Z"/><path class="cls-2" d="M64,40.239q25.662,20.364,51.323,0Z"/><path class="cls-2" d="M128,32.669v7.566H115.324A50.744,50.744,0,0,1,128,32.669Z"/><path class="cls-1" d="M0,54.208v2.2a44.588,44.588,0,0,0,4.811-2.2A57.278,57.278,0,0,0,13.6,48.4l-1.856-2.345A50.368,50.368,0,0,1,0,53.2Z"/><path class="cls-1" d="M63.069,48.4c-16.641-13.205-32.82-13.205-49.461,0l-1.862-2.345c17.646-14,35.539-14,53.185,0Z"/><path class="cls-1" d="M89.661,58.9c-8.884,0-17.769-3.5-26.592-10.5l1.862-2.345c16.641,13.206,32.82,13.206,49.461,0l1.862,2.345C107.431,55.4,98.546,58.9,89.661,58.9Z"/><path class="cls-1" d="M128,40.235V38.049a46.215,46.215,0,0,0-4.791,2.186,57.51,57.51,0,0,0-8.813,5.819l1.856,2.345A50.368,50.368,0,0,1,128,41.253Z"/><path class="cls-2" d="M12.676,54.208A51.1,51.1,0,0,1,0,61.784V54.208Z"/><path class="cls-2" d="M12.677,54.212q25.662-20.364,51.323,0Z"/><path class="cls-2" d="M64,54.212q25.662,20.365,51.323,0Z"/><path class="cls-2" d="M128,46.643v7.565H115.324A50.739,50.739,0,0,1,128,46.643Z"/><path class="cls-1" d="M13.605,62.373c-.809.639-1.607,1.248-2.416,1.817A49.824,49.824,0,0,1,0,70.378v-3.2a50.34,50.34,0,0,0,11.748-7.147l1.427,1.8Z"/><path class="cls-1" d="M63.069,62.372c-16.641-13.206-32.82-13.206-49.461,0l-1.862-2.345c17.646-14.005,35.539-14.005,53.185,0Z"/><path class="cls-1" d="M89.661,72.874c-8.884,0-17.769-3.5-26.592-10.5l1.862-2.345c16.641,13.206,32.82,13.206,49.461,0l1.862,2.345C107.431,69.374,98.546,72.874,89.661,72.874Z"/><path class="cls-1" d="M128,54.208V52.022a46.426,46.426,0,0,0-4.791,2.186,57.584,57.584,0,0,0-8.813,5.819l1.856,2.346A50.374,50.374,0,0,1,128,55.226Z"/><path class="cls-2" d="M12.676,89.143A51.1,51.1,0,0,1,0,96.719V89.143Z"/><path class="cls-2" d="M12.677,89.147q25.662-20.366,51.323,0Z"/><path class="cls-2" d="M64,89.147q25.662,20.365,51.323,0Z"/><path class="cls-2" d="M128,81.577v7.566H115.324A50.744,50.744,0,0,1,128,81.577Z"/><path class="cls-1" d="M13.605,97.308a52.372,52.372,0,0,1-13.6,8v-3.2a50.374,50.374,0,0,0,11.748-7.147Z"/><path class="cls-1" d="M63.069,97.307c-16.641-13.206-32.82-13.206-49.461,0l-1.862-2.346c17.646-14,35.539-14,53.185,0Z"/><path class="cls-1" d="M89.661,107.808c-8.884,0-17.769-3.5-26.592-10.5l1.862-2.346c16.641,13.206,32.82,13.206,49.461,0l1.862,2.346C107.431,104.308,98.546,107.808,89.661,107.808Z"/><path class="cls-1" d="M128,86.957v3.2a50.34,50.34,0,0,0-11.748,7.147L114.4,94.962a57.517,57.517,0,0,1,8.814-5.819A46.215,46.215,0,0,1,128,86.957Z"/></svg>
