<svg id="images" xmlns="http://www.w3.org/2000/svg" viewBox="0 0 128 128"><defs><style>.cls-1{fill:#fff;}.cls-2{fill:#ffec64;}.cls-3{fill:#407f47;}</style></defs><title>alert_icons2</title><path class="cls-1" d="M66.847,32.284,64.068,21.173a.509.509,0,0,1,.362-.62l.843-.219a.5.5,0,0,1,.609.369l2.779,11.111a.51.51,0,0,1-.362.62l-.843.218A.5.5,0,0,1,66.847,32.284Z"/><circle class="cls-2" cx="29.7" cy="29.796" r="6.437"/><rect class="cls-2" x="23.95" y="12.508" width="11.5" height="3.075" rx="1.295" transform="translate(15.654 43.746) rotate(-90)"/><rect class="cls-2" x="39.701" y="28.259" width="11.5" height="3.075" rx="1.295"/><rect class="cls-2" x="23.95" y="44.009" width="11.5" height="3.075" rx="1.295" transform="translate(75.247 15.847) rotate(90)"/><rect class="cls-2" x="8.2" y="28.259" width="11.5" height="3.075" rx="1.295" transform="translate(27.9 59.593) rotate(-180)"/><rect class="cls-2" x="12.227" y="16.536" width="11.5" height="3.075" rx="1.295" transform="translate(17.909 43.565) rotate(-135)"/><rect class="cls-2" x="35.673" y="16.536" width="11.5" height="3.075" rx="1.295" transform="translate(-0.647 34.584) rotate(-45)"/><rect class="cls-2" x="35.673" y="39.982" width="11.5" height="3.075" rx="1.295" transform="translate(41.491 -17.13) rotate(45)"/><rect class="cls-2" x="12.227" y="39.982" width="11.5" height="3.075" rx="1.295" transform="translate(60.048 58.166) rotate(135)"/><path class="cls-1" d="M47.693,112.275l-6.862-1.034a.368.368,0,0,1-.3-.418l.04-.287a.354.354,0,0,1,.4-.313l6.862,1.035a.367.367,0,0,1,.3.418l-.04.286A.354.354,0,0,1,47.693,112.275Z"/><path class="cls-3" d="M44.875,128H18.682V84.083a9.409,9.409,0,0,1,9.41-9.409h7.374a9.409,9.409,0,0,1,9.409,9.409Z"/><path class="cls-1" d="M47.249,80.3,43.17,83.47a1.028,1.028,0,0,1-1.483-.233l-.495-.7a1.15,1.15,0,0,1,.222-1.557l4.079-3.168a1.028,1.028,0,0,1,1.483.233l.495.7A1.15,1.15,0,0,1,47.249,80.3Z"/><path class="cls-1" d="M50.781,97.9l-6.187,2.324a.512.512,0,0,1-.662-.328l-.137-.4a.551.551,0,0,1,.313-.694L50.3,96.477a.511.511,0,0,1,.662.328l.136.4A.55.55,0,0,1,50.781,97.9Z"/><path class="cls-1" d="M15.658,84.938l3.794,1.488a.551.551,0,0,1,.3.7l-.142.4a.511.511,0,0,1-.667.319l-3.794-1.488a.552.552,0,0,1-.3-.7l.142-.4A.511.511,0,0,1,15.658,84.938Z"/><path class="cls-1" d="M19.772,122.875l-5.691-1.534a.382.382,0,0,1-.261-.462l.071-.288a.361.361,0,0,1,.44-.273l5.692,1.534a.381.381,0,0,1,.26.462l-.07.288A.361.361,0,0,1,19.772,122.875Z"/><path class="cls-1" d="M20.554,108.494l-3.38.441a1.073,1.073,0,0,1-1.183-.968l-.1-.866a1.1,1.1,0,0,1,.922-1.242l3.381-.44a1.072,1.072,0,0,1,1.183.967l.1.866A1.1,1.1,0,0,1,20.554,108.494Z"/><path class="cls-1" d="M27.711,77.071,25.5,71.358a.386.386,0,0,1,.2-.5l.263-.112a.355.355,0,0,1,.471.209l2.216,5.712a.387.387,0,0,1-.2.5l-.263.112A.356.356,0,0,1,27.711,77.071Z"/><path class="cls-1" d="M29.919,82.476l3.794,1.488a.551.551,0,0,1,.3.7l-.142.4a.512.512,0,0,1-.667.319l-3.794-1.488a.551.551,0,0,1-.3-.7l.142-.4A.51.51,0,0,1,29.919,82.476Z"/><path class="cls-1" d="M39.127,121.9l1.815-5.866a.358.358,0,0,1,.456-.244l.27.092a.383.383,0,0,1,.232.478l-1.816,5.867a.358.358,0,0,1-.456.243l-.269-.092A.383.383,0,0,1,39.127,121.9Z"/><path class="cls-1" d="M28.759,111.072l-4.353-5.664a.382.382,0,0,1,.052-.519l.215-.182a.341.341,0,0,1,.5.056l4.353,5.664a.382.382,0,0,1-.053.519l-.215.181A.339.339,0,0,1,28.759,111.072Z"/><path class="cls-1" d="M37.632,103.094l-1.621-6.685a.545.545,0,0,1,.374-.66l.393-.1a.515.515,0,0,1,.629.392l1.622,6.685a.547.547,0,0,1-.375.661l-.393.1A.516.516,0,0,1,37.632,103.094Z"/><path class="cls-1" d="M23.364,116.75l-1.1,2.668a.281.281,0,0,1-.376.157l-.2-.093a.306.306,0,0,1-.15-.394l1.1-2.669a.281.281,0,0,1,.376-.156l.2.093A.306.306,0,0,1,23.364,116.75Z"/><path class="cls-1" d="M95.32,104.871l-8.632-1.262a.427.427,0,0,1-.357-.485l.055-.386a.422.422,0,0,1,.476-.364l8.632,1.262a.428.428,0,0,1,.357.485l-.055.387A.422.422,0,0,1,95.32,104.871Z"/><path class="cls-3" d="M119.147,61.492V75.629a3.855,3.855,0,0,1-3.813,3.892H93.325V128H60.518V40.134a9.881,9.881,0,0,1,9.791-9.962H83.534a9.88,9.88,0,0,1,9.791,9.962V67.4H107.23v-5.9a4.537,4.537,0,0,1,4.5-4.571h2.907A4.537,4.537,0,0,1,119.147,61.492Z"/><path class="cls-1" d="M76.7,67.581,74.656,59.41a.632.632,0,0,1,.448-.767l.548-.142a.618.618,0,0,1,.753.456l2.044,8.171A.632.632,0,0,1,78,67.9l-.547.141A.62.62,0,0,1,76.7,67.581Z"/><path class="cls-1" d="M100.077,93.32l-8.223,1.039a.623.623,0,0,1-.692-.548l-.069-.571a.628.628,0,0,1,.538-.7L99.854,91.5a.622.622,0,0,1,.692.548l.07.571A.629.629,0,0,1,100.077,93.32Z"/><path class="cls-1" d="M62.466,35.554,59.5,32.275a1.309,1.309,0,0,1,.073-1.826l.851-.8a1.255,1.255,0,0,1,1.8.075l2.969,3.279a1.308,1.308,0,0,1-.074,1.826l-.851.8A1.254,1.254,0,0,1,62.466,35.554Z"/><path class="cls-1" d="M82.7,45.589l4.8,1.827a.635.635,0,0,1,.364.812l-.2.538a.617.617,0,0,1-.8.37l-4.8-1.826A.635.635,0,0,1,81.7,46.5l.2-.539A.617.617,0,0,1,82.7,45.589Z"/><path class="cls-1" d="M73.071,90.78,67.6,83.874a.433.433,0,0,1,.064-.6l.3-.245a.416.416,0,0,1,.592.064L74.026,90a.434.434,0,0,1-.064.6l-.3.245A.418.418,0,0,1,73.071,90.78Z"/><path class="cls-1" d="M61.949,63.6,54.78,65.46a.433.433,0,0,1-.527-.318l-.1-.389a.441.441,0,0,1,.313-.536l7.169-1.857a.432.432,0,0,1,.526.318l.1.39A.44.44,0,0,1,61.949,63.6Z"/><path class="cls-1" d="M65.61,104.184l-1.385,3.269a.34.34,0,0,1-.45.182l-.286-.126a.351.351,0,0,1-.179-.457l1.385-3.269a.341.341,0,0,1,.45-.182l.286.126A.351.351,0,0,1,65.61,104.184Z"/><rect class="cls-1" x="54.572" y="117.736" width="8.264" height="1.283" rx="0.433"/><path class="cls-1" d="M63.317,52.566l5.177-7.986a.684.684,0,0,1,.958-.2l.527.353a.711.711,0,0,1,.2.975L65,53.694a.684.684,0,0,1-.958.2l-.526-.353A.712.712,0,0,1,63.317,52.566Z"/><path class="cls-1" d="M96.236,31.585l-4.91,4.23a.4.4,0,0,1-.572-.049l-.239-.287a.417.417,0,0,1,.048-.582l4.909-4.23a.4.4,0,0,1,.572.049l.239.287A.418.418,0,0,1,96.236,31.585Z"/><path class="cls-1" d="M79.476,115.136l-1.424,5.594a.4.4,0,0,1-.482.289l-.726-.192a.4.4,0,0,1-.283-.49l1.424-5.594a.4.4,0,0,1,.482-.289l.726.191A.4.4,0,0,1,79.476,115.136Z"/><path class="cls-1" d="M98.394,124.049l-6.555-.354a.369.369,0,0,1-.344-.389l.018-.337a.367.367,0,0,1,.382-.35l6.555.355a.367.367,0,0,1,.344.389l-.017.337A.366.366,0,0,1,98.394,124.049Z"/><path class="cls-1" d="M91.32,110.543,87.48,112.8a.223.223,0,0,1-.308-.084l-.1-.181a.23.23,0,0,1,.082-.313l3.84-2.256a.223.223,0,0,1,.307.084l.1.181A.233.233,0,0,1,91.32,110.543Z"/><path class="cls-1" d="M87.671,83.025l-6.407-3.764a.444.444,0,0,1-.158-.6l.2-.347a.43.43,0,0,1,.592-.162L88.3,81.914a.445.445,0,0,1,.158.6l-.2.348A.429.429,0,0,1,87.671,83.025Z"/><path class="cls-1" d="M100.921,65.28l-1.586,2.8a.3.3,0,0,1-.411.112l-.237-.14a.308.308,0,0,1-.11-.417l1.586-2.8a.3.3,0,0,1,.411-.112l.237.139A.309.309,0,0,1,100.921,65.28Z"/><path class="cls-1" d="M122.919,62.958,118.886,64a.275.275,0,0,1-.335-.2l-.062-.248a.281.281,0,0,1,.2-.341l4.033-1.041a.276.276,0,0,1,.335.2l.062.248A.281.281,0,0,1,122.919,62.958Z"/><path class="cls-1" d="M112.253,82.665l-6.133-3.6a.221.221,0,0,1-.079-.3l.1-.173a.214.214,0,0,1,.294-.08l6.133,3.6a.22.22,0,0,1,.079.3l-.1.172A.212.212,0,0,1,112.253,82.665Z"/><path class="cls-1" d="M86.272,92.349l-4.915,2.656a.5.5,0,0,1-.677-.212h0a.514.514,0,0,1,.207-.689L85.8,91.448a.5.5,0,0,1,.677.211h0A.514.514,0,0,1,86.272,92.349Z"/></svg>