<svg id="images" xmlns="http://www.w3.org/2000/svg" viewBox="0 0 128 128"><defs><style>.cls-1{fill:#fff;}.cls-2{fill:#407f47;}.cls-3{fill:#96ff2c;}</style></defs><title>alert_icons2</title><path class="cls-1" d="M106.194,48.515,64.375,75.644l-1.369-2.205c13.145-6.33,24.709-13.095,33.3-20.673Z"/><path class="cls-2" d="M24.31,73.97a.419.419,0,0,0-.04-.16.833.833,0,0,0-.15.04,7.8,7.8,0,0,0-1.68.63,8.437,8.437,0,0,0-4.68,7.57,2.055,2.055,0,0,0,.35.02,6.432,6.432,0,0,0,6.43-6.43A6.123,6.123,0,0,0,24.31,73.97Z"/><path class="cls-2" d="M59.46,51.18a.5.5,0,0,0-.08-.07,8.941,8.941,0,0,0,1.21,1.46A8.7,8.7,0,0,0,59.46,51.18Z"/><path class="cls-2" d="M117.28,44.27a2.675,2.675,0,0,0-2.29,1.28,5.308,5.308,0,0,0-2.91-1.73,7.72,7.72,0,0,0-1.25-3.57,4.42,4.42,0,0,0-2.62-7.98,4.53,4.53,0,0,0-.91.09,8.12,8.12,0,0,0-9.63-12.87,7.924,7.924,0,0,0-13.43-4.3,12.577,12.577,0,0,0-21.72-2.1A8.49,8.49,0,0,0,49.24,20.1a8.27,8.27,0,0,0,.21,1.88,10.664,10.664,0,0,0-9.53,10.59,10.835,10.835,0,0,0,.34,2.69,7.21,7.21,0,0,0-5.29,6.03,7.943,7.943,0,0,0-9.56,2.18A10.309,10.309,0,0,0,13.84,60.51a3.166,3.166,0,0,0,.92,4.87,5.193,5.193,0,0,0-.12,1.12,5.292,5.292,0,0,0,1.06,3.19,6.417,6.417,0,0,0,2.06,12.36,8.483,8.483,0,0,0,4.05,7.2,3.652,3.652,0,0,0,3.63,5.71,7.789,7.789,0,0,0,.71,2.19,7.67,7.67,0,0,0,14.52-3.04,4.575,4.575,0,0,0,3.97-5.93,7.99,7.99,0,0,0,3.33-10.59,7.712,7.712,0,0,0-1.1-1.64,9.359,9.359,0,0,0,2.04-1.18,9.59,9.59,0,0,0,3.8-7.64,7.983,7.983,0,0,0-.11-1.39,8.523,8.523,0,0,0,9.34-8.03,7.251,7.251,0,0,0,4.65-2.36c.26.02.53.03.8.03a9.682,9.682,0,0,0,8.98-6.08,3.148,3.148,0,0,0,1.43.35,3.05,3.05,0,0,0,2.73-1.68,5.99,5.99,0,0,0,8.71,2.39,3.267,3.267,0,0,0,6.33-1.13.66.66,0,0,0-.01-.14,9.808,9.808,0,0,0,1.64.14c.26,0,.51-.01.77-.03a7.827,7.827,0,0,0,8.58,2.84,5.332,5.332,0,0,0,9.72-2.56,2.6,2.6,0,0,0,1.01.2,2.705,2.705,0,1,0,0-5.41ZM35.53,87.16a.138.138,0,0,1-.04-.03.507.507,0,0,0,.13-.02C35.59,87.13,35.56,87.14,35.53,87.16Zm1.05-.25a.035.035,0,0,0-.01.02c-.01-.01-.01-.01-.02-.01a.037.037,0,0,1,.03-.01l.12-.15a2.592,2.592,0,0,1,.48-.04C36.98,86.79,36.78,86.85,36.58,86.91ZM42.43,69.8a1.876,1.876,0,0,0-.12-.18,1.336,1.336,0,0,1,.18-.07A.824.824,0,0,1,42.43,69.8ZM59.38,51.11a.5.5,0,0,1,.08.07,8.7,8.7,0,0,1,1.13,1.39A8.941,8.941,0,0,1,59.38,51.11Zm45.95-17.3a2.639,2.639,0,0,0-.21-.29,4.361,4.361,0,0,1,2.17-1.15A8.4,8.4,0,0,1,105.33,33.81Z"/><path class="cls-1" d="M96.594,112.42c-.043-.061-.078-.121-.121-.182a1.689,1.689,0,0,1,.182-.069A1.546,1.546,0,0,1,96.594,112.42Z"/><path class="cls-1" d="M96.594,112.42c-.043-.061-.078-.121-.121-.182a1.689,1.689,0,0,1,.182-.069A1.546,1.546,0,0,1,96.594,112.42Z"/><path class="cls-1" d="M96.594,112.42c-.043-.061-.078-.121-.121-.182a1.689,1.689,0,0,1,.182-.069A1.546,1.546,0,0,1,96.594,112.42Z"/><path class="cls-3" d="M96.594,112.42c-.043-.061-.078-.121-.121-.182a1.689,1.689,0,0,1,.182-.069A1.546,1.546,0,0,1,96.594,112.42Z"/><path class="cls-3" d="M96.594,112.42c-.043-.061-.078-.121-.121-.182a1.689,1.689,0,0,1,.182-.069A1.546,1.546,0,0,1,96.594,112.42Z"/><path class="cls-1" d="M66.659,90.6c.022.051.624,1.888.645,1.946,1.173,3.465.332,8.749.93,13.282.135,1.032.256,2.071.369,3.1.377,3.48.626,6.909.8,9.916.227,4.141,4.7,7.635,4.722,9.153l-18.4-.016c-2.538-20.456,8.526-16.423,3.84-26.4-.242-.523-.47-1.025-.676-1.5-3.2-7.475-2.147-10.875-2.581-17.181-.078-1.111-.2-2.317-.4-3.654a7.473,7.473,0,0,0-1.323-3C51.9,72.3,45.614,67.741,39.236,63.8V62C47.179,67.3,55.427,73.066,57.6,74.73c.178.138.32.247.412.327,2.326,1.983,1.65,8.289,4.466-2.158.021-.072.043-.152.064-.232,2.211-8.26,3.193-6.763,4.579-9.5a21.253,21.253,0,0,0,1.43-4.053q.192-.709.341-1.4c1.706-7.766-.789-12.6-1.707-16.178,0,0,1.849-3.589,2.29,0s4.544,9.778,1.813,15.756c-.817,1.78-1.529,3.371-2.147,4.882v.007c-.221.523-.42,1.032-.612,1.54a44.334,44.334,0,0,0-1.543,4.73v.007a.007.007,0,0,1-.007.007c-.377,1.424-.7,2.92-.967,4.591-.974,5.979-2.84,8.586-1.077,12.875Z"/><path class="cls-2" d="M60.59,52.57a8.941,8.941,0,0,1-1.21-1.46.5.5,0,0,1,.08.07A8.7,8.7,0,0,1,60.59,52.57Z"/><path class="cls-2" d="M28.07,126.78a8.246,8.246,0,0,1-.09,1.22H0V108.18a12.4,12.4,0,0,1,4.5-1.75,12,12,0,0,1,2-.18,1.275,1.275,0,0,1,.2-.01,12.759,12.759,0,0,1,1.87.14,12.491,12.491,0,0,1,2.05.48,11.87,11.87,0,0,1,1.56.64c.33.15.65.33.96.51a12.489,12.489,0,0,1,6.05,10.08h.21a1.927,1.927,0,0,1,.24.01.915.915,0,0,1,.17.01c.21.01.41.03.61.05a8.5,8.5,0,0,1,3.73,1.37,8.283,8.283,0,0,1,1.51,1.26,4.745,4.745,0,0,1,.42.49A8.5,8.5,0,0,1,28.07,126.78Z"/><path class="cls-2" d="M128,113.34V128H109.64a5.661,5.661,0,0,1-.16-1.31,5.4,5.4,0,0,1,1.68-3.9l.05-.05a5.129,5.129,0,0,1,1.57-1c.08-.04.16-.07.24-.11.22-.07.44-.14.67-.19a6.337,6.337,0,0,1,1.16-.12,4.868,4.868,0,0,1,1.92.37.492.492,0,0,1,.17.06c-.04-.05-.06-.11-.1-.16A6.958,6.958,0,0,1,128,113.34Z"/><path class="cls-2" d="M20.42,118.16a49.076,49.076,0,0,0,1,9.84h-.78a49.344,49.344,0,0,1-1-9.9,105.253,105.253,0,0,1,1.53-18.47l.75.12A104.057,104.057,0,0,0,20.42,118.16Z"/><path class="cls-2" d="M25.087,127.111l-1.848-.763c1.038-2.512,1.429-11.93-.027-16.42l1.9-.617C26.64,114.015,26.4,123.936,25.087,127.111Z"/><path class="cls-2" d="M30.13,128h-1c-.19-3.51-.74-14.56-.6-19.94l1,.02C29.39,113.47,29.95,124.56,30.13,128Z"/><path class="cls-2" d="M55.05,128h-.76c-.09-1.21-.33-3.7-.97-8.33l.75-.11C54.72,124.3,54.96,126.8,55.05,128Z"/><path class="cls-2" d="M57.94,127.98c0,.01,0,.01.01.02h-.78c-.01-.01-.01-.01,0-.02-.41-1.86-.77-5.53.41-11.4l.73.15C57.13,122.63,57.55,126.27,57.94,127.98Z"/><path class="cls-2" d="M59.9,127.98a.035.035,0,0,1-.01.02h-.76v-.02a19.837,19.837,0,0,0-.19-7.99l.72-.23A20.493,20.493,0,0,1,59.9,127.98Z"/><path class="cls-2" d="M62.49,127.99c-.01.01-.01.01,0,.01h-.75v-.01c-.12-2.12-.36-7.33-.3-9.96l.75.02C62.13,120.66,62.38,125.9,62.49,127.99Z"/><path class="cls-2" d="M47.38,128h-.25c-.05-.82-.22-2.93-.85-7.45l.25-.03C47.16,125.12,47.34,127.2,47.38,128Z"/><path class="cls-2" d="M49.73,128h-.76c.09-.92.03-3.45-1.44-9.88l.73-.17C49.65,124.05,49.82,126.78,49.73,128Z"/><path class="cls-2" d="M50.5,128h-.26a16.418,16.418,0,0,0-.06-7.21l.24-.08A16.948,16.948,0,0,1,50.5,128Z"/><path class="cls-2" d="M52.82,128h-.25c-.08-1.42-.34-6.4-.27-8.8h.25C52.48,121.61,52.74,126.61,52.82,128Z"/><path class="cls-2" d="M107.82,128h-.52c-.14-1.44-.39-3.54-.8-6.54l.5-.07C107.42,124.44,107.67,126.56,107.82,128Z"/><path class="cls-2" d="M108.78,128h-.26c-.42-1.72-.88-5.42.36-11.56l.24.05C107.9,122.61,108.38,126.32,108.78,128Z"/><path class="cls-2" d="M110.9,128h-.77a18.5,18.5,0,0,0,.36-4.44,14.382,14.382,0,0,0-.49-3.77l.71-.23a13.423,13.423,0,0,1,.5,3.18A20.569,20.569,0,0,1,110.9,128Z"/><path class="cls-2" d="M113.3,128h-.25c-.07-1.22-.2-3.82-.27-6.26-.04-1.47-.06-2.88-.04-3.9l.25.01c-.02.99,0,2.35.03,3.78C113.1,124.1,113.23,126.77,113.3,128Z"/><path class="cls-2" d="M106.8,128h-.25c-.18-1.49-.67-4.65-2.01-10.65l.25-.06C106.14,123.37,106.63,126.52,106.8,128Z"/><path class="cls-2" d="M33.94,128h-.75c-.04-1.06-.3-5.58-1.98-17.8l.75-.1C33.67,122.56,33.91,126.97,33.94,128Z"/><path class="cls-2" d="M14.01,128H12.98c-.66-2.47-1.88-8.99-.8-20.5.24-2.62.6-5.5,1.11-8.65l.99.16c-.54,3.29-.91,6.29-1.14,9C12.13,119.51,13.45,125.9,14.01,128Z"/><path class="cls-2" d="M10.18,128H8.15c.83-4.29,1.06-14.47.42-21.62a40.708,40.708,0,0,0-.6-4.39l1.96-.4a47.1,47.1,0,0,1,.69,5.27C11.2,113.95,10.97,123.43,10.18,128Z"/><path class="cls-2" d="M7.15,128h-2c-.15-3.24-.62-14.32-.65-21.57,0-1.07,0-2.06.02-2.93l2,.04c-.02.81-.02,1.72-.02,2.71C6.52,113.52,7.01,124.87,7.15,128Z"/><path class="cls-2" d="M45.21,128h-.5c-.02-1.18-.03-3.2.06-6.54l.5.01C45.18,124.81,45.19,126.83,45.21,128Z"/><path class="cls-2" d="M30.33,52.26a10.311,10.311,0,0,0-.12-1.58,12.462,12.462,0,0,0-11.75,9.59,11.328,11.328,0,0,0-.23,1.16c-.04.32-.07.64-.1.96-.01.26-.02.52-.02.79a12.759,12.759,0,0,0,.14,1.87,12.426,12.426,0,0,0,1.37,4.09v.02a2.755,2.755,0,0,0,.17.29,12.009,12.009,0,0,0,1.66,2.22,11.483,11.483,0,0,0,2.67,2.18.761.761,0,0,0,.19.12.419.419,0,0,0-.04-.16,6.239,6.239,0,0,0-1.57-2.66,5.363,5.363,0,0,0,.41-9.05A10.326,10.326,0,0,0,30.33,52.26Z"/><path class="cls-2" d="M107.05,39.37a9.83,9.83,0,0,1-.12,1.55,4.413,4.413,0,0,1-3.14-4.21,3.854,3.854,0,0,1,.48-.02,7.79,7.79,0,0,1,2.52.42A9.847,9.847,0,0,1,107.05,39.37Z"/><path class="cls-2" d="M66.16,21.02a8.485,8.485,0,0,1-16.71.96c.37-.03.74-.05,1.12-.05a10.5,10.5,0,0,1,6.22,2.01,7.2,7.2,0,0,1,3.43-3.04,7.126,7.126,0,0,1,5.94.12Z"/><path class="cls-2" d="M60.59,52.57a8.941,8.941,0,0,1-1.21-1.46.5.5,0,0,1,.08.07A8.7,8.7,0,0,1,60.59,52.57Z"/><path class="cls-2" d="M107.05,39.37a9.83,9.83,0,0,1-.12,1.55,4.413,4.413,0,0,1-3.14-4.21,3.854,3.854,0,0,1,.48-.02,7.79,7.79,0,0,1,2.52.42A9.847,9.847,0,0,1,107.05,39.37Z"/><path class="cls-1" d="M106.39,128h-11a9.2,9.2,0,0,0,.22-1v-.01c.75-4.22,1.07-15.46.7-25.12-.39-10.59-1.61-4.88-3.75-12.45h5.29c-1.93,5.7.35,12.4,3.17,21.93.31,1.06,2.96,7.1,3.26,8.23C105.78,125.16,106.28,127.28,106.39,128Z"/><path class="cls-2" d="M116.79,85.69a12.353,12.353,0,0,1-12.36,12.35,12.878,12.878,0,0,1-2.17-.19,4.905,4.905,0,0,1-1.85,2.84,4.979,4.979,0,0,1-6.04-.06A9.638,9.638,0,0,1,77.9,93.84a9.555,9.555,0,0,1,1.19-4.64,8.184,8.184,0,0,1,4.86-15.61,4.436,4.436,0,0,1-.19-1.32,4.747,4.747,0,0,1,9.03-2.04,8.851,8.851,0,0,1,2.69-.41,8.733,8.733,0,0,1,2.57.38,7.8,7.8,0,1,1,13.7,5.53A12.328,12.328,0,0,1,116.79,85.69Z"/><path class="cls-2" d="M36.32,128H35.24c-.7-2.13-.62-5.64.65-7.5l.83.56C35.53,122.8,35.63,126.34,36.32,128Z"/><path class="cls-2" d="M40.32,128h-1c.56-4.25.02-14.23-.58-17.5l.99-.18C40.32,113.58,40.89,123.46,40.32,128Z"/><path class="cls-2" d="M95.54,26.3a7.519,7.519,0,0,1-2.02,1.51,9.388,9.388,0,0,1-.08-1.19,7.876,7.876,0,0,1,.32-2.24A9.276,9.276,0,0,1,95.54,26.3Z"/><path class="cls-2" d="M107.29,32.37a8.4,8.4,0,0,1-1.96,1.44,2.639,2.639,0,0,0-.21-.29A4.361,4.361,0,0,1,107.29,32.37Z"/><path class="cls-2" d="M105.33,33.81a2.639,2.639,0,0,0-.21-.29,4.361,4.361,0,0,1,2.17-1.15A8.4,8.4,0,0,1,105.33,33.81Z"/><circle class="cls-2" cx="24.109" cy="49.376" r="6"/><path class="cls-2" d="M43.29,116.73c-.05,2.12-.37,8.33-.53,11.27H42.5c.16-2.93.49-9.16.54-11.28Z"/><path class="cls-2" d="M95.67,128H94.66c-.2-3.94-.71-14.31-.58-19.47l1,.02c-.12,4.76.31,13.99.53,18.44V127C95.63,127.37,95.65,127.7,95.67,128Z"/><path class="cls-2" d="M79.93,128h-1c-.05-1.16-.33-5.73-1.98-17.72l.99-.14C79.63,122.37,79.89,126.85,79.93,128Z"/><path class="cls-2" d="M83.89,128H82.82c-.84-2.54-2.23-9.16.43-20.95l.97.22C81.51,119.34,83.15,125.92,83.89,128Z"/><path class="cls-2" d="M87.13,128H86.1c.9-3.25,1.16-11.88-.22-16.14l.95-.3C88.16,115.66,88.1,124.19,87.13,128Z"/><path class="cls-2" d="M92.37,128h-1c-.1-1.71-.81-14.82-.66-20.85l1,.03C91.56,113.23,92.29,126.54,92.37,128Z"/><path class="cls-2" d="M75.95,128H74.92c.82-3.48,1.02-11.67-.31-15.79l.95-.31C76.85,115.89,76.83,124.04,75.95,128Z"/></svg>