<svg id="images" xmlns="http://www.w3.org/2000/svg" viewBox="0 0 128 128"><defs><style>.cls-1{fill:#fff;}.cls-2{fill:#f70d0d;}</style></defs><title>alert_icons2</title><path class="cls-1" d="M64.81,56.649a.4.4,0,0,1-.1-.13c.02,0,.05-.01.07-.01C64.79,56.56,64.8,56.6,64.81,56.649Z"/><polygon class="cls-1" points="119.04 128 5.93 128 30.85 86.145 35.05 81.297 35.7 84.208 44.92 80.415 51.86 94.187 66.83 82.454 77.4 99.552 83.82 82.454 95.65 89.208 101.96 97.838 119.04 128"/><path class="cls-1" d="M64.88,19.5a.152.152,0,0,1-.02.06c-.01-.051-.03-.091-.04-.13A.187.187,0,0,1,64.88,19.5Z"/><path class="cls-1" d="M64.88,19.5a.152.152,0,0,1-.02.06c-.01-.051-.03-.091-.04-.13A.187.187,0,0,1,64.88,19.5Z"/><path class="cls-1" d="M64.88,19.5a.152.152,0,0,1-.02.06c-.01-.051-.03-.091-.04-.13A.187.187,0,0,1,64.88,19.5Z"/><path class="cls-1" d="M111.02,4.627A7.107,7.107,0,0,0,109.33,0H27.48a9.994,9.994,0,0,0,.67,2.916,7.119,7.119,0,0,0-.57,12.949,5.433,5.433,0,0,0-.42,2.146,5.714,5.714,0,0,0,4.7,5.649,8.945,8.945,0,0,0-1.03,4.181,8.842,8.842,0,0,0,4.67,7.826,3.749,3.749,0,0,0-.14,1.013,3.642,3.642,0,0,0,3.62,3.665,3.507,3.507,0,0,0,2.5-1.013,8.6,8.6,0,0,0,7.67,4.738c.11,0,.22,0,.33-.01a6.031,6.031,0,0,0,4.63,9.77,4.071,4.071,0,0,0,.61-.05,4.292,4.292,0,0,0-.28,1.579,4.7,4.7,0,0,0,3.71,4.606,4.534,4.534,0,0,0-.25,1.448,4.457,4.457,0,0,0,.3,1.6,3.124,3.124,0,0,0-1.72,2.774,3.005,3.005,0,1,0,6.01,0v-.021a2.85,2.85,0,0,0,.78-.121c.03,0,.08-.02.11-.02.01.081.03.141.04.222a4.92,4.92,0,0,0,9.64-1.437,5.045,5.045,0,0,0-1.81-3.857,4.945,4.945,0,0,0,1.42-3.483v-.02a.554.554,0,0,0,.18.02,7.64,7.64,0,0,0,7.6-7.674.917.917,0,0,0-.03-.284,1.113,1.113,0,0,0,.03-.314,4.036,4.036,0,0,0-.08-.779,6.025,6.025,0,0,0,5.84-6.075,6.251,6.251,0,0,0-.34-2.035c.11.011.22.011.34.011A6.949,6.949,0,0,0,92.04,29.3a10.494,10.494,0,0,0,5.46-9.243,10.732,10.732,0,0,0-.23-2.207,4.761,4.761,0,0,0,2.97,1.022,5,5,0,0,0,4.96-5.021,4.913,4.913,0,0,0-.48-2.136A7.109,7.109,0,0,0,111.02,4.627ZM59.36,50.661c0-.01.01-.01.01-.03,0,.02.02.02.03.03ZM63.5,7.785c-.02-.08-.05-.141-.06-.2a.337.337,0,0,1,.09.111A.162.162,0,0,1,63.5,7.785Z"/><path class="cls-1" d="M62.21,46.949h-.03c0-.01.01-.01.01-.019C62.19,46.939,62.2,46.939,62.21,46.949Z"/><polygon class="cls-2" points="95.65 89.208 83.82 82.454 77.4 99.552 66.83 82.454 51.86 94.187 44.92 80.415 35.7 84.208 35.05 81.297 43.73 71.277 48.2 66.115 51.58 56.217 64.24 57.343 79.56 56.217 86 76.013 86.24 76.348 95.65 89.208"/></svg>