<svg id="images" xmlns="http://www.w3.org/2000/svg" viewBox="0 0 128 128"><defs><style>.cls-1{fill:#6de8e8;}.cls-2{fill:#fff;}</style></defs><title>alert_icons2</title><path class="cls-1" d="M0,65.553c0,30.928,42.667,30.928,42.667,0,0,30.928,42.666,30.928,42.666,0,0,30.928,42.667,30.928,42.667,0V102H0Z"/><path class="cls-2" d="M0,78.553c0,30.928,42.667,30.928,42.667,0,0,30.928,42.666,30.928,42.666,0,0,30.928,42.667,30.928,42.667,0V115H0Z"/><path class="cls-1" d="M0,91.553c0,30.928,42.667,30.928,42.667,0,0,30.928,42.666,30.928,42.666,0,0,30.928,42.667,30.928,42.667,0V128H0Z"/><circle class="cls-2" cx="95.596" cy="30.131" r="16.24"/></svg>