<svg id="images" xmlns="http://www.w3.org/2000/svg" viewBox="0 0 128 128"><defs><style>.cls-1{fill:#fff;}.cls-2{fill:#407f47;}</style></defs><title>alert_icons2</title><rect class="cls-1" y="94.098" width="128" height="33.902"/><path class="cls-2" d="M14.17,117.926h0c-.132.307.033.691.3.691,0,.991,12.8.991,12.8,0,.263,0,.427-.384.3-.691h0C24.586,110.976,17.146,110.976,14.17,117.926Z"/><path class="cls-2" d="M112.76,23.69c-.17,6.67-2.88,13.31-3.38,14.64a133.018,133.018,0,0,0-5.83,21.6,87.877,87.877,0,0,0-1.06,19.74c.24,2.54-1.29,2.86-1.59,1.48-1.8-7.21-4.94-11.78,4-40.88,8.46-27.54,1.94-34.23-3.29-40.27h7.53C111.57,4.44,112.99,14.63,112.76,23.69Z"/><path class="cls-2" d="M116.893,40.837c-.65,1.226-5.035,1.034-7.01.427s-2.483-1.92-1.833-3.147,2.212-1.9,4.187-1.295S117.542,39.61,116.893,40.837Z"/><path class="cls-2" d="M103.377,19.067c.538-1.016,4.168-.857,5.8-.354s2.056,1.589,1.518,2.605a2.777,2.777,0,0,1-3.466,1.073C105.6,21.888,102.839,20.082,103.377,19.067Z"/><path class="cls-2" d="M91.227,48.251c1.38-2.194,8.086-.425,10.966.627s4.063,2.163,2.682,4.358-3.258,2.188-6.139,1.136S89.846,50.445,91.227,48.251Z"/><path class="cls-2" d="M112.322,71.428c-.577,2.447-4.886,2.255-8.1,1.815s-4.12-.858-3.543-3.3,1.884-2.561,5.1-2.122S112.9,68.982,112.322,71.428Z"/><path class="cls-2" d="M55.12,107.563a31.079,31.079,0,0,1-15.679,0c5.308-27.053,5.038-73.966,0-97.653L55.12,31.584C50.93,59.8,51.36,84.831,55.12,107.563Z"/><path class="cls-2" d="M105.637,86.463l-7.4,13.67c0,2.934,20.012,2.934,20.012,0l-7.4-13.67A2.964,2.964,0,0,0,105.637,86.463Z"/><path class="cls-2" d="M11.44,95.316h0c-.132.307.033.691.3.691,0,.991,12.8.991,12.8,0,.263,0,.427-.384.3-.691h0C21.856,88.365,14.416,88.365,11.44,95.316Z"/><path class="cls-2" d="M71.46,58.751c-9.915-1.451-15.074-.091-22.072,1V55.845H74.139Z"/><path class="cls-2" d="M44.212,55.108c-5.245-3.875-10.967-7.612-13.391-7.216L32.276,43.1a26.961,26.961,0,0,0,13.6,8.918Z"/><path class="cls-1" d="M75.385,47.258a1.136,1.136,0,0,1,.115.044,2.309,2.309,0,0,1,1.22,3.027,2.08,2.08,0,0,1-.276.475A6.692,6.692,0,0,1,77.71,61.717a6.579,6.579,0,0,1,.641,1.224,6.959,6.959,0,0,1-.681,6.484,2.321,2.321,0,0,1-.809,3.991,5.553,5.553,0,0,1-7.677,5.914,5.563,5.563,0,0,1-3.242-6.324,6.692,6.692,0,0,1-.976-.333,6.838,6.838,0,0,1-3.6-8.978,6.75,6.75,0,0,1,.626-1.153A7.095,7.095,0,0,1,65.533,49.38a.884.884,0,0,1,1.17-1.14.711.711,0,0,1,.247.167,3.45,3.45,0,0,1,4.258-1.6,2.133,2.133,0,0,1,.143-.493,2.1,2.1,0,0,1,4.034.944Z"/><path class="cls-1" d="M37.783,51.445a6.878,6.878,0,0,1,.478,2.536,6.491,6.491,0,0,1-6.332,6.627h-.087a6.07,6.07,0,0,1-5.848,4.853,6.144,6.144,0,0,1-6-6.282,6.56,6.56,0,0,1,.377-2.191,4.989,4.989,0,0,1-2.516-4.374,1.15,1.15,0,0,1,.013-.211,8.2,8.2,0,0,1-1.743-5.093,7.853,7.853,0,0,1,7.671-8.029,7.284,7.284,0,0,1,3.008.641,5.447,5.447,0,0,1,4-1.761,5.74,5.74,0,0,1,5.6,5.867,5.211,5.211,0,0,1-.074.923,3.875,3.875,0,0,1,2.584,3.7A3.973,3.973,0,0,1,37.783,51.445Z"/><path class="cls-2" d="M87.47,46.11c-.33.87-.59.75-.81,0a77.682,77.682,0,0,0-.41-11.56c-.61-5.12-2.27-9.85-2.45-12.44-.07-1.01-1.13-7.04-1.51-12.17A22.837,22.837,0,0,1,83.59,0h3.29a2.507,2.507,0,0,1-.05.3c-2.07,3.77-4.6,5.56-1.11,22.74C89.19,40.08,88.17,41.89,87.47,46.11Z"/><path class="cls-2" d="M81.333,24.873c.281.7,2.181.589,3.037.244a1.363,1.363,0,1,0-1.02-2.526C82.5,22.936,81.051,24.176,81.333,24.873Z"/><path class="cls-2" d="M86.4,11.39c-.233-.578-1.805-.487-2.513-.2a1.128,1.128,0,1,0,.844,2.092C85.441,12.994,86.636,11.967,86.4,11.39Z"/><path class="cls-2" d="M91.732,28.23c-.6-1.247-3.5-.241-4.751.357s-1.76,1.23-1.162,2.478,1.412,1.244,2.66.646S92.33,29.478,91.732,28.23Z"/><path class="cls-2" d="M82.389,41.842c.25,1.391,2.117,1.282,3.508,1.032s1.785-.488,1.535-1.879-.816-1.456-2.207-1.206S82.139,40.451,82.389,41.842Z"/><path class="cls-2" d="M33.385,110.991c0,1.4-3.974,1.4-3.974,0v-2.014c0-4.7.828-8.5,1.85-8.5h.274c1.022,0,1.85,3.807,1.85,8.5Z"/><path class="cls-2" d="M30.131,111.383c0,.876-2.487.876-2.487,0v-1.26c0-2.939.518-5.322,1.158-5.322h.171c.64,0,1.158,2.383,1.158,5.322Z"/><path class="cls-2" d="M27.922,111.574c0,.622-1.767.622-1.767,0v-.9c0-2.088.368-3.781.822-3.781H27.1c.455,0,.823,1.693.823,3.781Z"/><path class="cls-2" d="M58.381,118.075a1.808,1.808,0,0,0,.7,1.263,5.551,5.551,0,0,0,1.26.778,16.173,16.173,0,0,0,2.829.928,45.687,45.687,0,0,0,5.889.987,106.776,106.776,0,0,0,11.943.6,107.027,107.027,0,0,0,11.943-.6,45.687,45.687,0,0,0,5.889-.987,16.313,16.313,0,0,0,2.829-.928,5.609,5.609,0,0,0,1.26-.778,1.808,1.808,0,0,0,.7-1.263,1.836,1.836,0,0,1-.66,1.308,5.68,5.68,0,0,1-1.248.843,16.444,16.444,0,0,1-2.82,1.054,45.323,45.323,0,0,1-5.905,1.132A98.461,98.461,0,0,1,81,123.128a98.864,98.864,0,0,1-11.989-.716,45.128,45.128,0,0,1-5.9-1.133,16.44,16.44,0,0,1-2.82-1.053,5.68,5.68,0,0,1-1.248-.843A1.836,1.836,0,0,1,58.381,118.075Z"/><path class="cls-2" d="M12.6,119.361c.068.169.274.195.431.244s.339.072.511.1c.346.047.692.081,1.041.1.7.058,1.395.09,2.093.108,1.4.036,2.8.066,4.194.031,1.4,0,2.8-.056,4.187-.147.7-.042,1.392-.108,2.08-.212a5.78,5.78,0,0,0,2-.551,5.272,5.272,0,0,1-1.957.792c-.691.154-1.389.265-2.089.354-1.4.171-2.811.226-4.218.263-1.409-.006-2.817-.028-4.222-.148-.7-.065-1.4-.139-2.1-.248-.348-.059-.7-.131-1.038-.216a5.156,5.156,0,0,1-.509-.158C12.852,119.605,12.641,119.544,12.6,119.361Z"/><path class="cls-2" d="M96.324,101.133c.088.545.676.747,1.125.931a9.6,9.6,0,0,0,1.5.384,27.846,27.846,0,0,0,3.079.4c2.066.17,4.142.253,6.217.235,2.075.016,4.152-.065,6.218-.236a28.148,28.148,0,0,0,3.079-.4,9.7,9.7,0,0,0,1.5-.384c.449-.184,1.037-.386,1.125-.931a.875.875,0,0,1-.388.661,3.392,3.392,0,0,1-.687.393,9.926,9.926,0,0,1-1.494.5,27.531,27.531,0,0,1-3.093.544,55.708,55.708,0,0,1-12.514,0,27.554,27.554,0,0,1-3.092-.544,9.79,9.79,0,0,1-1.5-.5,3.443,3.443,0,0,1-.687-.392A.875.875,0,0,1,96.324,101.133Z"/><path class="cls-2" d="M112.937,104.327a.7.7,0,0,0,.448.475,3.037,3.037,0,0,0,.651.21,9.346,9.346,0,0,0,1.368.217c.925.08,1.854.122,2.784.118s1.86-.038,2.784-.118a9.482,9.482,0,0,0,1.368-.217,3.153,3.153,0,0,0,.651-.21.7.7,0,0,0,.448-.475.7.7,0,0,1-.38.589,3.335,3.335,0,0,1-.646.33,9.252,9.252,0,0,1-1.387.363,17.034,17.034,0,0,1-5.675,0,9.193,9.193,0,0,1-1.387-.364,3.227,3.227,0,0,1-.646-.33A.7.7,0,0,1,112.937,104.327Z"/><path class="cls-2" d="M56.63,108.563a27.632,27.632,0,0,1-18.7,0c1.545.348,3.094.645,4.654.837a34.825,34.825,0,0,0,4.7.294A40.725,40.725,0,0,0,56.63,108.563Z"/><path class="cls-2" d="M59.554,109.254a30.779,30.779,0,0,1-18.548,1.883,32,32,0,0,1-6-1.883,44.524,44.524,0,0,0,6.071,1.5,36.4,36.4,0,0,0,12.406,0A44.345,44.345,0,0,0,59.554,109.254Z"/><path class="cls-2" d="M5.757,120.491c.063.326.357.492.627.616a4.475,4.475,0,0,0,.889.259,13.452,13.452,0,0,0,1.852.265c1.25.094,2.505.145,3.762.14s2.512-.047,3.762-.142a13.3,13.3,0,0,0,1.852-.264,4.551,4.551,0,0,0,.888-.258c.27-.124.565-.291.627-.616a.957.957,0,0,1-.53.79,4.781,4.781,0,0,1-.881.436,13,13,0,0,1-1.88.484,22.272,22.272,0,0,1-3.838.319,22.293,22.293,0,0,1-3.839-.32,12.991,12.991,0,0,1-1.879-.484,4.719,4.719,0,0,1-.881-.436A.956.956,0,0,1,5.757,120.491Z"/><path class="cls-2" d="M10.431,96.481c.143.306.537.327.834.409a9.213,9.213,0,0,0,.971.132c.651.07,1.306.108,1.962.132,1.311.051,2.625.087,3.938.069,1.314.017,2.627-.018,3.939-.069.655-.025,1.311-.062,1.962-.132a9.285,9.285,0,0,0,.971-.132c.3-.082.691-.1.833-.409-.1.342-.51.426-.8.537a9.335,9.335,0,0,1-.968.246c-.654.121-1.312.2-1.971.273-1.319.132-2.643.163-3.966.185-1.322-.023-2.646-.052-3.965-.186-.659-.071-1.317-.152-1.971-.273a9.609,9.609,0,0,1-.969-.245C10.941,96.906,10.529,96.823,10.431,96.481Z"/><path class="cls-2" d="M33.792,111.685a.669.669,0,0,1-.22.618,1.865,1.865,0,0,1-.654.389,4.216,4.216,0,0,1-1.52.265,4.6,4.6,0,0,1-1.3-.185c-.07-.027-.15-.053-.221-.08l-.123-.053a.309.309,0,0,1-.1-.044.992.992,0,0,1-.168-.089,1.153,1.153,0,0,1-.265-.2.67.67,0,0,1-.221-.618,1.065,1.065,0,0,0,.795.627.2.2,0,0,0,.1.027.631.631,0,0,0,.115.035c.062.009.124.026.186.035l.176.027a6.8,6.8,0,0,0,2.412-.062A1.24,1.24,0,0,0,33.792,111.685Z"/><path class="cls-2" d="M30.373,112.436a.417.417,0,0,1-.106.194l-.009.009a.587.587,0,0,1-.159.133,1.232,1.232,0,0,1-.238.132,2.633,2.633,0,0,1-1.944,0,.9.9,0,0,1-.159-.088.729.729,0,0,1-.106-.062.38.38,0,0,1-.141-.124l-.018-.017a.068.068,0,0,1-.018-.036.374.374,0,0,1-.07-.362.587.587,0,0,0,.274.256.274.274,0,0,0,.079.035c.009,0,.018.009.027.009a.456.456,0,0,0,.15.036.71.71,0,0,0,.123.035,6.513,6.513,0,0,0,.831.062,7.482,7.482,0,0,0,.769-.053c.017,0,.035-.009.053-.009a1.452,1.452,0,0,0,.282-.08.849.849,0,0,0,.2-.1Z"/><path class="cls-2" d="M27.935,112.551a.221.221,0,0,1-.071.168.158.158,0,0,1-.026.035.54.54,0,0,1-.08.062.94.94,0,0,1-.2.123,1.915,1.915,0,0,1-.733.151,1.961,1.961,0,0,1-.743-.151.987.987,0,0,1-.309-.22.29.29,0,0,1-.044-.319.662.662,0,0,0,.5.221c.185.018.388.027.592.027s.4-.009.583-.027c.026,0,.062-.008.088-.008a.732.732,0,0,0,.15-.036.292.292,0,0,0,.142-.062A.456.456,0,0,0,27.935,112.551Z"/><path class="cls-2" d="M6.932,119.588h0c0,2.205,11.91,2.205,11.91,0h0C16.2,108.79,9.579,108.79,6.932,119.588Z"/><path class="cls-2" d="M68.107,105.7,62.12,116.075c0,6.4,37.766,6.4,37.766,0L93.9,105.7A14.89,14.89,0,0,0,68.107,105.7Z"/><path class="cls-2" d="M113.676,103.692h0c0,1.693,9.146,1.693,9.146,0h0C120.789,95.4,115.708,95.4,113.676,103.692Z"/></svg>