<svg id="images" xmlns="http://www.w3.org/2000/svg" viewBox="0 0 128 128"><defs><style>.cls-1{fill:#e8a41c;}.cls-2{fill:#fff;}</style></defs><title>alert_icons2</title><polygon class="cls-1" points="79.558 104.708 84.003 91.324 92.803 81.088 104.811 78.374 115.857 85.232 122.088 103.192 79.558 104.708"/><polygon class="cls-2" points="63.386 51.589 29.386 57.682 31.089 49.28 38.67 41.754 48.671 39.148 58.293 41.802 63.386 51.589"/><polygon class="cls-2" points="96.576 102.899 5.47 103.24 27.381 67.586 29.386 57.682 63.386 51.589 69.658 63.63 77.536 68.51 89.202 86.914 96.576 102.899"/><polygon class="cls-1" points="13.835 101.379 25.725 85.905 38.581 80.574 47.642 84.045 51.868 101.647 13.835 101.379"/><path class="cls-1" d="M54.409,102.589l4.237-4.624L60.1,93.29l4.726-2.59s2.728,1.08,3.031,1.079,3.893,6.362,3.893,6.362l2.364,4.107Z"/><polygon class="cls-1" points="69.466 63.271 59.747 54.918 52.072 52.469 37.716 55.345 27.381 67.586 31.089 49.28 38.67 41.754 48.671 39.148 58.293 41.802 69.466 63.271"/><polygon class="cls-2" points="100.102 100.512 107.898 95.084 110.267 97.926 113.622 99.229 114.905 101.658 100.102 101.658 100.102 100.512"/><rect class="cls-1" y="101.349" width="128" height="26.651"/></svg>