<svg id="images" xmlns="http://www.w3.org/2000/svg" viewBox="0 0 128 128"><defs><style>.cls-1{fill:#e8a41c;}.cls-2{fill:#fff;}.cls-3{fill:none;stroke:#fff;stroke-miterlimit:10;stroke-width:4px;}</style></defs><title>alert_icons2</title><rect class="cls-1" y="64" width="128" height="64"/><path class="cls-2" d="M77.446,92.41v23.906h-4.7V104.357H68.032v11.959H59.5V106.171H54.774v10.145H46.029V108.5H41.315v7.813H36.829V108.4C19.2,107.343,5.311,95.863,5.311,81.874c0-14.694,15.337-26.615,34.227-26.615S73.766,67.18,73.766,81.874a21.448,21.448,0,0,1-2.8,10.536ZM66.784,80.475a7.19,7.19,0,1,0-7.2,7.184A7.2,7.2,0,0,0,66.784,80.475Zm-26.313-.957a12.9,12.9,0,1,0-12.9,12.892A12.9,12.9,0,0,0,40.471,79.518Z"/><path d="M59.589,73.292a7.184,7.184,0,1,1-7.184,7.183A7.2,7.2,0,0,1,59.589,73.292Z"/><path d="M27.566,66.613A12.9,12.9,0,1,1,14.674,79.518,12.9,12.9,0,0,1,27.566,66.613Z"/><polyline class="cls-3" points="85.061 86.999 85.061 53.897 97.211 43.304 98.084 34.035 111.514 32.711 116.163 26.469 119.582 27.63"/><polyline class="cls-3" points="68.213 18.135 80.043 23.889 77.867 37.411 85.061 53.897"/><polyline class="cls-3" points="77.867 37.411 69.981 33.24 49.811 41.06"/><line class="cls-3" x1="69.981" y1="33.24" x2="67.397" y2="40.72"/><polyline class="cls-3" points="98.084 34.035 90.241 18.135 94.163 11.087 100.031 11.087"/><line class="cls-3" x1="90.241" y1="18.135" x2="83.17" y2="14.414"/><line class="cls-3" x1="111.514" y1="32.711" x2="105.47" y2="23.889"/><line class="cls-3" x1="58.02" y1="37.877" x2="52.867" y2="32.339"/></svg>